InceptionBold.sfdir

StartChar: A
Encoding: 65 65 0
Width: 753
Flags: W
LayerCount: 2
Fore
SplineSet
293.781 699.812 m 1,0,-1
 345.719 699.812 l 1,1,-1
 408.781 699.812 l 1,2,-1
 460.781 699.812 l 1,3,-1
 480.5 651.656 l 1,4,-1
 747.188 0 l 1,5,-1
 725.688 0 l 1,6,-1
 462 644.062 l 1,7,-1
 447.375 679.812 l 1,8,-1
 408.781 679.812 l 1,9,-1
 400.031 679.812 l 1,10,-1
 399.875 680.188 l 1,11,-1
 388 679.812 l 1,12,-1
 386.875 645.094 l 1,13,-1
 390.938 634.812 l 1,14,-1
 390.125 634.812 l 1,15,-1
 395.75 621.031 l 1,16,-1
 437.312 519.5 l 1,17,-1
 524.562 306.281 l 1,18,-1
 549.938 244.25 l 1,19,-1
 561.219 216.688 l 1,20,-1
 560.719 216.688 l 1,21,-1
 574.906 184.375 l 1,22,-1
 574.531 184.219 l 1,23,-1
 576.562 179.25 l 1,24,-1
 588 151.281 l 1,25,-1
 601.438 118.469 l 1,26,-1
 631.206 45 l 1,27,-1
 609.906 45 l 1,28,-1
 569.5 143.719 l 1,29,-1
 521.425 261.157 l 1,30,31
 482.029 261.971 482.029 261.971 464.406 261.688 c 2,32,-1
 307.969 261.688 l 1,33,-1
 316.438 281.688 l 1,34,-1
 464.406 281.688 l 1,35,-1
 377.156 494.906 l 1,36,-1
 280.812 261.688 l 1,37,-1
 259.625 261.688 l 1,38,-1
 270.969 289.281 l 1,39,-1
 358.656 502.5 l 1,40,-1
 377.188 547.594 l 1,41,-1
 395.656 502.469 l 1,42,-1
 482.906 289.25 l 1,43,-1
 485.894 282.244 l 1,44,-1
 513.144 281.682 l 1,45,-1
 506.062 298.719 l 1,46,-1
 418.812 511.938 l 1,47,-1
 377.25 613.469 l 1,48,-1
 335.531 512.031 l 1,49,-1
 247.844 298.812 l 1,50,-1
 222.312 236.688 l 1,51,-1
 289.469 236.688 l 1,52,-1
 464.406 236.688 l 1,53,-1
 503.906 236.688 l 1,54,-1
 511.844 216.688 l 1,55,-1
 464.406 216.688 l 1,56,-1
 289.469 216.688 l 1,57,-1
 222.312 216.688 l 1,58,-1
 192.469 216.688 l 1,59,-1
 203.812 244.281 l 1,60,-1
 229.344 306.406 l 1,61,-1
 317.031 519.625 l 1,62,-1
 332.781 557.906 l 1,63,-1
 366.688 639.781 l 1,64,-1
 367.969 679.812 l 1,65,-1
 345.719 679.812 l 1,66,-1
 307.188 679.812 l 1,67,-1
 27.2822 0 l 1,68,-1
 6 0 l 1,69,-1
 274.031 651.781 l 1,70,-1
 293.781 699.812 l 1,0,-1
323.938 654.812 m 1,71,-1
 345.719 654.812 l 1,72,-1
 83.75 20 l 1,73,-1
 160.188 20 l 1,74,-1
 207.188 134.281 l 1,75,-1
 212.281 146.688 l 1,76,-1
 225.688 146.688 l 1,77,-1
 518.781 146.688 l 1,78,-1
 507.812 171.688 l 1,79,-1
 225.688 171.688 l 1,80,-1
 195.531 171.688 l 1,81,-1
 184.062 143.812 l 1,82,-1
 143.438 45 l 1,83,-1
 121.869 45 l 1,84,-1
 150.844 114.688 l 1,85,-1
 165.562 151.406 l 1,86,-1
 177.031 179.312 l 1,87,-1
 182.125 191.688 l 1,88,-1
 195.531 191.688 l 1,89,-1
 225.688 191.688 l 1,90,-1
 522.762 191.688 l 1,91,-1
 593.094 20 l 1,92,-1
 669.812 20 l 1,93,-1
 623.156 131.5 l 1,94,-1
 438.031 583.812 l 1,95,-1
 409.938 654.812 l 1,96,-1
 430.562 654.812 l 1,97,-1
 438.844 634.625 l 1,98,-1
 672.656 63.3438 l 1,99,-1
 698.781 0 l 1,100,-1
 579.688 0 l 1,101,-1
 528.188 125.844 l 1,102,-1
 527.562 126.688 l 1,103,-1
 225.688 126.688 l 1,104,-1
 173.594 0 l 1,105,-1
 54.8311 0 l 1,106,-1
 323.938 654.812 l 1,71,-1
EndSplineSet
Validated: 33
Position2: "'cpsp' Capital Spacing in Latin lookup 0 subtable" dx=7 dy=0 dh=14 dv=0
EndChar

StartChar: B
Encoding: 66 66 26
Width: 675
Flags: W
LayerCount: 2
Fore
SplineSet
174.094 697.78 m 0,0,1
 365.115 697.748 365.115 697.748 424.25 693.999 c 0,2,3
 494.685 689.534 494.685 689.534 547.756 644.621 c 128,-1,4
 600.828 599.708 600.828 599.708 616.594 531.562 c 0,5,6
 637.287 441.383 637.287 441.383 584.906 362.999 c 1,7,-1
 585.812 362.187 l 2,8,9
 616.401 334.763 616.401 334.763 633.274 290.885 c 0,10,11
 649.449 248.824 649.449 248.824 648.281 202.593 c 0,12,13
 646.901 147.928 646.901 147.928 617.539 103.788 c 0,14,15
 586.712 57.4467 586.712 57.4467 547.188 35.7803 c 0,16,17
 478.495 -1.32365 478.495 -1.32365 411.469 -1.06348 c 2,18,-1
 137.5 0 l 2,19,20
 122.25 0 122.25 0 107 0 c 2,21,-1
 107 0 l 1,22,-1
 107 620.249 l 1,23,-1
 107 652.749 l 1,24,-1
 174.093 652.78 l 2,25,26
 361.864 652.868 361.864 652.868 421.405 649.093 c 0,27,28
 477.34 645.547 477.34 645.547 518.806 610.444 c 128,-1,29
 560.271 575.341 560.271 575.341 572.749 521.405 c 0,30,31
 575.472 509.57 575.472 509.57 576.498 498.062 c 1,32,-1
 556.404 498.062 l 1,33,34
 555.451 507.343 555.451 507.343 553.343 516.562 c 0,35,-1
 553.312 516.718 l 1,36,-1
 553.249 516.905 l 1,37,38
 542.204 564.648 542.204 564.648 505.988 595.313 c 128,-1,39
 469.772 625.979 469.772 625.979 420.155 629.124 c 0,40,41
 362.471 632.78 362.471 632.78 174.093 632.78 c 2,42,-1
 159.499 632.78 l 1,43,-1
 159.499 632.749 l 1,44,-1
 141.968 632.749 l 1,45,-1
 140.218 632.749 l 1,46,-1
 139.499 632.749 l 1,47,-1
 126.999 632.749 l 1,48,-1
 126.999 620.249 l 1,49,-1
 126.999 22.9053 l 1,50,51
 141.349 22.6621 141.349 22.6621 151.999 22.5303 c 0,52,53
 364.185 19.1357 364.185 19.1357 411.562 18.9365 c 0,54,55
 478.038 18.6572 478.038 18.6572 537.124 53.0615 c 0,56,57
 573.7 74.3594 573.7 74.3594 600.374 114.312 c 128,-1,58
 627.048 154.265 627.048 154.265 628.28 203.093 c 0,59,60
 629.345 245.214 629.345 245.214 614.688 283.361 c 0,61,62
 599.839 322.008 599.839 322.008 572.155 347.562 c 2,63,-1
 571.343 348.312 l 1,64,-1
 558.78 359.905 l 1,65,-1
 568.28 374.124 l 2,66,67
 615.854 445.328 615.854 445.328 597.155 526.749 c 1,68,-1
 597.094 527.062 l 1,69,70
 582.719 588.988 582.719 588.988 534.834 629.482 c 128,-1,71
 486.948 669.977 486.948 669.977 423 674.03 c 0,72,73
 363.839 677.78 363.839 677.78 174.094 677.78 c 2,74,-1
 152.781 677.78 l 1,75,-1
 141.938 677.749 l 1,76,-1
 140.125 677.749 l 1,77,-1
 82 677.719 l 1,78,-1
 82 620.25 l 1,79,-1
 82 0 l 1,80,-1
 62 0 l 1,81,-1
 62 80.25 l 1,82,-1
 62 620.25 l 1,83,-1
 62 697.719 l 1,84,-1
 139.656 697.749 l 2,85,86
 139.735 697.749 139.735 697.749 140.486 697.751 c 128,-1,87
 141.312 697.752 141.312 697.752 142.873 697.755 c 128,-1,88
 144.435 697.758 144.435 697.758 146.612 697.762 c 128,-1,89
 148.791 697.765 148.791 697.765 151.745 697.768 c 128,-1,90
 154.7 697.771 154.7 697.771 158.051 697.774 c 128,-1,91
 161.401 697.777 161.401 697.777 165.568 697.778 c 128,-1,92
 169.735 697.78 169.735 697.78 174.094 697.78 c 0,0,1
152 607.718 m 1,93,-1
 172.125 607.593 l 1,94,-1
 217.344 607.343 l 2,95,96
 382.273 606.484 382.273 606.484 418.531 604.187 c 0,97,98
 455.797 601.824 455.797 601.824 488.438 574.093 c 0,99,100
 520.759 546.631 520.759 546.631 528.938 511.28 c 0,101,102
 537.022 476.331 537.022 476.331 525.49 444.211 c 128,-1,103
 513.959 412.091 513.959 412.091 491.344 390.749 c 1,104,-1
 491.124 390.468 l 1,105,-1
 490.874 390.249 l 1,106,-1
 490.624 389.969 l 1,107,-1
 489.78 389.249 l 1,108,-1
 489.562 389.062 l 1,109,-1
 489.062 388.624 l 2,110,111
 478.287 378.585 478.287 378.585 470.218 373.312 c 0,112,113
 459.8 366.504 459.8 366.504 445.687 362.062 c 0,114,115
 420.553 354.151 420.553 354.151 371.249 354.655 c 0,116,-1
 371.062 354.655 l 1,117,-1
 370.781 354.655 l 1,118,-1
 370.625 354.655 l 1,119,-1
 370.5 354.655 l 2,120,121
 278.908 355.097 278.908 355.097 216.406 355.655 c 2,122,-1
 197.281 355.843 l 1,123,-1
 197.281 375.843 l 1,124,-1
 216.594 375.655 l 2,125,126
 281.062 375.08 281.062 375.08 368.281 374.655 c 2,127,-1
 371 374.655 l 2,128,129
 417.537 374.154 417.537 374.154 439.688 381.124 c 0,130,131
 451.099 384.714 451.099 384.714 459.281 390.062 c 0,132,133
 465.991 394.445 465.991 394.445 475.906 403.687 c 2,134,-1
 476.156 403.905 l 1,135,-1
 476.719 404.374 l 1,136,-1
 477.219 404.874 l 2,137,138
 496.115 422.506 496.115 422.506 506.158 450.022 c 128,-1,139
 516.202 477.539 516.202 477.539 509.438 506.78 c 0,140,141
 502.749 535.691 502.749 535.691 475.5 558.843 c 0,142,143
 447.92 582.274 447.92 582.274 417.281 584.218 c 0,144,145
 381.471 586.488 381.471 586.488 217.25 587.343 c 2,146,-1
 172 587.593 l 1,147,-1
 172 542.343 l 1,148,-1
 172 420.655 l 1,149,-1
 172 265.655 l 1,150,-1
 172 221.062 l 1,151,-1
 172 156.562 l 1,152,-1
 172 112.249 l 1,153,-1
 216.312 111.562 l 2,154,155
 376.636 109.085 376.636 109.085 411.938 108.937 c 0,156,157
 425.674 108.879 425.674 108.879 447.75 114.218 c 0,158,159
 474.332 120.646 474.332 120.646 491.844 130.843 c 0,160,161
 514.479 144.023 514.479 144.023 523.969 156.968 c 0,162,163
 535.478 172.667 535.478 172.667 537.781 196.343 c 1,164,-1
 557.844 196.343 l 1,165,166
 555.394 166.023 555.394 166.023 540.094 145.155 c 0,167,168
 528.123 128.827 528.123 128.827 501.906 113.562 c 0,169,170
 481.877 101.899 481.877 101.899 452.438 94.7803 c 0,171,172
 427.991 88.8682 427.991 88.8682 411.844 88.9365 c 0,173,174
 376.252 89.0859 376.252 89.0859 216 91.5615 c 2,175,-1
 172.281 92.0615 l 1,176,177
 172.222 85.1045 172.222 85.1045 172.316 69.9121 c 128,-1,178
 172.411 54.7207 172.411 54.7207 172.281 47.2178 c 1,179,-1
 152 47.7803 l 1,180,-1
 152 156.562 l 1,181,-1
 152 221.062 l 1,182,-1
 152 420.655 l 1,183,-1
 152 542.343 l 1,184,-1
 152 587.593 l 1,185,-1
 152 607.718 l 1,93,-1
197 562.437 m 1,186,-1
 217.094 562.343 l 1,187,-1
 217.155 542.343 l 1,188,-1
 216.999 542.343 l 1,189,-1
 216.999 420.655 l 1,190,191
 279.262 420.099 279.262 420.099 370.812 419.655 c 2,192,-1
 371.219 419.655 l 2,193,194
 410.791 419.216 410.791 419.216 426.187 424.062 c 0,195,196
 434.647 426.725 434.647 426.725 446.28 437.562 c 2,197,-1
 446.53 437.78 l 1,198,199
 473.404 462.855 473.404 462.855 465.593 496.624 c 0,200,201
 462.264 511.016 462.264 511.016 446.197 524.667 c 128,-1,202
 430.131 538.317 430.131 538.317 414.437 539.312 c 0,203,204
 382.545 541.333 382.545 541.333 242.155 542.187 c 1,205,-1
 242.155 562.187 l 1,206,207
 382.77 561.369 382.77 561.369 415.718 559.28 c 0,208,209
 438.026 557.866 438.026 557.866 459.312 539.78 c 0,210,211
 480.27 521.975 480.27 521.975 485.093 501.124 c 0,212,213
 495.506 456.11 495.506 456.11 460.187 423.155 c 1,214,-1
 459.937 422.937 l 1,215,-1
 459.719 422.718 l 1,216,-1
 459.438 422.53 l 1,217,218
 450.466 414.183 450.466 414.183 445.594 410.999 c 0,219,220
 440.336 407.563 440.336 407.563 432.188 404.999 c 0,221,222
 413.732 399.19 413.732 399.19 371.125 399.655 c 0,223,-1
 370.719 399.655 l 2,224,225
 279.104 400.099 279.104 400.099 216.812 400.655 c 2,226,-1
 197 400.843 l 1,227,-1
 197 420.655 l 1,228,-1
 197 542.343 l 1,229,-1
 197 562.437 l 1,186,-1
556.812 473.062 m 1,230,-1
 576.812 473.063 l 1,231,232
 573.34 410.447 573.34 410.447 524.694 357.193 c 1,233,-1
 554.406 329.907 l 2,234,235
 555.23 329.147 555.23 329.147 555.625 328.813 c 0,236,237
 605.256 281.891 605.256 281.891 603.281 203.72 c 0,238,239
 602.233 162.188 602.233 162.188 578.913 127.466 c 128,-1,240
 555.594 92.7441 555.594 92.7441 524.531 74.6572 c 0,241,242
 471.344 43.6865 471.344 43.6865 411.656 43.9385 c 0,243,244
 374.038 44.0967 374.038 44.0967 197.281 46.8447 c 1,245,-1
 197.281 66.8447 l 1,246,-1
 257.312 65.9072 l 2,247,248
 380.117 64.0703 380.117 64.0703 411.75 63.9385 c 0,249,250
 465.989 63.71 465.989 63.71 514.469 91.9385 c 0,251,252
 540.856 107.304 540.856 107.304 561.622 138.074 c 128,-1,253
 582.388 168.845 582.388 168.845 583.281 204.22 c 0,254,255
 585.032 273.479 585.032 273.479 541.875 314.282 c 1,256,-1
 540.844 315.188 l 1,257,-1
 509.659 343.583 l 1,258,259
 490.803 331.943 490.803 331.943 471.512 323.668 c 1,260,261
 502.727 316.67 502.727 316.67 524.344 296.47 c 0,262,263
 542.525 279.476 542.525 279.476 550.812 257.25 c 0,264,265
 556.816 241.006 556.816 241.006 558.031 221.345 c 1,266,-1
 538 221.345 l 1,267,268
 536.886 237.317 536.886 237.317 532.062 250.25 c 0,269,270
 525.413 268.081 525.413 268.081 510.688 281.845 c 0,271,272
 481.298 309.311 481.298 309.311 426.969 309.345 c 0,273,274
 426.833 309.345 426.833 309.345 413.969 309.406 c 0,275,-1
 369.188 309.687 l 2,276,277
 314.008 309.955 314.008 309.955 217.406 310.656 c 2,278,-1
 197.281 310.781 l 1,279,-1
 197.281 330.749 l 1,280,-1
 217.594 330.655 l 2,281,282
 310.922 329.97 310.922 329.97 369.281 329.687 c 0,283,284
 441.467 329.724 441.467 329.724 474.422 347.99 c 0,285,286
 508.72 367 508.72 367 530.875 399.093 c 0,287,288
 554.064 433.826 554.064 433.826 556.812 473.062 c 1,230,-1
197 285.655 m 1,289,-1
 217.188 285.655 l 2,290,291
 302.324 285.033 302.324 285.033 369.062 284.687 c 2,292,-1
 388.969 284.593 l 2,293,294
 420.472 284.35 420.472 284.35 426.938 284.343 c 0,295,296
 471.453 284.315 471.453 284.315 493.625 263.593 c 0,297,298
 504.021 253.878 504.021 253.878 508.625 241.53 c 0,299,300
 513.855 227.508 513.855 227.508 513.312 206.03 c 0,301,302
 512.755 183.947 512.755 183.947 503.812 171.749 c 0,303,304
 497.403 163.007 497.403 163.007 479.25 152.437 c 0,305,306
 464.862 144.059 464.862 144.059 441.875 138.499 c 0,307,308
 422.82 133.891 422.82 133.891 412.031 133.937 c 0,309,310
 381.209 134.065 381.209 134.065 242.156 136.187 c 1,311,-1
 242.156 156.187 l 1,312,313
 384.463 154.054 384.463 154.054 412.125 153.937 c 0,314,315
 420.43 153.901 420.43 153.901 438.897 158.368 c 128,-1,316
 457.366 162.834 457.366 162.834 469.188 169.718 c 0,317,318
 483.714 178.176 483.714 178.176 488.314 184.45 c 128,-1,319
 492.914 190.725 492.914 190.725 493.312 206.53 c 0,320,321
 494.052 235.805 494.052 235.805 479.969 248.968 c 0,322,323
 463.543 264.321 463.543 264.321 426.938 264.343 c 0,324,325
 418.536 264.348 418.536 264.348 397.514 264.488 c 128,-1,326
 376.491 264.628 376.491 264.628 370.75 264.655 c 2,327,-1
 217.188 265.405 l 1,328,329
 217.021 170.817 217.021 170.817 217.094 136.562 c 1,330,-1
 197 136.874 l 1,331,-1
 197 156.562 l 1,332,-1
 197 245.843 l 1,333,-1
 197 285.655 l 1,289,-1
EndSplineSet
Validated: 37
Position2: "'cpsp' Capital Spacing in Latin lookup 0 subtable" dx=7 dy=0 dh=14 dv=0
EndChar

StartChar: C
Encoding: 67 67 1
Width: 712
Flags: W
LayerCount: 2
Fore
SplineSet
391.621 709.062 m 0,0,1
 395.254 709.045 395.254 709.045 398.434 708.969 c 0,2,3
 446.665 707.787 446.665 707.787 491.246 693.5 c 0,4,5
 618.752 652.634 618.752 652.634 682.152 553.438 c 1,6,-1
 665.871 543.031 l 1,7,8
 630.991 591.412 630.991 591.412 588.456 623.106 c 128,-1,9
 545.92 654.802 545.92 654.802 485.152 674.469 c 0,10,11
 443.385 687.855 443.385 687.855 397.934 688.969 c 0,12,13
 394.685 689.047 394.685 689.047 391.527 689.062 c 0,14,15
 278.638 689.573 278.638 689.573 182.871 617.25 c 0,16,17
 120.84 570.403 120.84 570.403 89.6582 501.237 c 128,-1,18
 58.4756 432.072 58.4756 432.072 57.9961 356.5 c 1,19,-1
 37.9961 356.5 l 1,20,21
 38.4902 436.432 38.4902 436.432 71.6367 509.894 c 128,-1,22
 104.783 583.355 104.783 583.355 170.809 633.219 c 0,23,24
 271.952 709.604 271.952 709.604 391.621 709.062 c 0,0,1
391.402 664.062 m 0,25,26
 394.022 664.05 394.022 664.05 397.34 663.969 c 0,27,28
 439.186 662.944 439.186 662.944 477.527 650.656 c 0,29,30
 585.806 616.894 585.806 616.894 644.715 529.5 c 1,31,-1
 548.777 468.188 l 1,32,33
 538.937 483.583 538.937 483.583 507.94 507.716 c 128,-1,34
 476.945 531.849 476.945 531.849 442.934 542.75 c 0,35,36
 414.817 551.761 414.817 551.761 389.857 552.932 c 128,-1,37
 364.897 554.103 364.897 554.103 332.454 543.25 c 128,-1,38
 300.01 532.397 300.01 532.397 266.215 506.875 c 0,39,40
 193.433 451.907 193.433 451.907 196.34 347.844 c 0,41,42
 197.632 301.592 197.632 301.592 216.564 258.829 c 128,-1,43
 235.498 216.067 235.498 216.067 263.184 193.219 c 0,44,45
 314.646 150.745 314.646 150.745 373.734 144.26 c 128,-1,46
 432.821 137.774 432.821 137.774 480.384 162.017 c 128,-1,47
 527.946 186.259 527.946 186.259 555.684 231.375 c 1,48,-1
 571.934 221.375 l 1,49,-1
 561.59 204.281 l 1,50,51
 527.786 160.576 527.786 160.576 476.46 138.816 c 128,-1,52
 425.134 117.057 425.134 117.057 364.002 125.794 c 128,-1,53
 302.869 134.53 302.869 134.53 250.465 177.781 c 0,54,55
 218.312 204.317 218.312 204.317 198.04 250.234 c 128,-1,56
 177.768 296.152 177.768 296.152 176.34 347.281 c 0,57,58
 173.145 461.665 173.145 461.665 254.152 522.844 c 0,59,60
 348.41 594.028 348.41 594.028 449.027 561.781 c 0,61,62
 486.444 549.788 486.444 549.788 523.621 520.844 c 1,63,-1
 552.965 494.594 l 1,64,-1
 615.682 534.652 l 1,65,66
 566.546 601.086 566.546 601.086 471.434 631.625 c 0,67,68
 435.901 643.013 435.901 643.013 396.84 643.969 c 0,69,70
 393.477 644.051 393.477 644.051 391.309 644.062 c 0,71,72
 293.63 644.506 293.63 644.506 209.996 581.344 c 0,73,74
 154.627 539.528 154.627 539.528 127.899 476.684 c 128,-1,75
 101.173 413.839 101.173 413.839 103.09 345.219 c 0,76,77
 104.973 277.817 104.973 277.817 131.028 218.83 c 128,-1,78
 157.084 159.843 157.084 159.843 203.809 121.281 c 0,79,80
 284.1 55.0166 284.1 55.0166 383.652 51.375 c 1,81,-1
 383.652 31.5 l 1,82,83
 276.759 35.1396 276.759 35.1396 191.09 105.844 c 0,84,85
 140.688 147.441 140.688 147.441 112.887 210.321 c 128,-1,86
 85.085 273.2 85.085 273.2 83.0898 344.656 c 0,87,88
 81.0488 417.704 81.0488 417.704 109.736 485.037 c 128,-1,89
 138.424 552.37 138.424 552.37 197.934 597.312 c 0,90,91
 286.946 664.535 286.946 664.535 391.402 664.062 c 0,25,26
377.965 615.938 m 1,92,-1
 377.965 596.156 l 1,93,94
 305.282 592.771 305.282 592.771 239.09 542.781 c 0,95,96
 193.606 508.432 193.606 508.432 171.677 456.557 c 128,-1,97
 149.748 404.683 149.748 404.683 151.371 346.594 c 0,98,99
 152.97 289.342 152.97 289.342 174.887 239.488 c 128,-1,100
 196.803 189.634 196.803 189.634 234.527 158.5 c 1,101,102
 286.03 113.398 286.03 113.398 354.79 101.89 c 128,-1,103
 423.55 90.3809 423.55 90.3809 489.328 118.012 c 128,-1,104
 555.106 145.643 555.106 145.643 593.246 208.281 c 1,105,-1
 690.527 148.469 l 1,106,107
 638.592 63.9912 638.592 63.9912 548.071 20.4951 c 128,-1,108
 457.55 -23.001 457.55 -23.001 352.68 -11.1689 c 128,-1,109
 247.809 0.663086 247.809 0.663086 162.434 71.125 c 0,110,111
 106.057 117.653 106.057 117.653 74.5049 185.937 c 128,-1,112
 42.9531 254.221 42.9531 254.221 38.6211 331.5 c 1,113,-1
 58.6523 331.5 l 1,114,115
 62.9512 258.448 62.9512 258.448 92.7227 194.235 c 128,-1,116
 122.494 130.021 122.494 130.021 175.152 86.5625 c 0,117,118
 253.239 22.1162 253.239 22.1162 348.635 9.5127 c 128,-1,119
 444.03 -3.0918 444.03 -3.0918 527.346 33.0879 c 128,-1,120
 610.66 69.2676 610.66 69.2676 662.402 142.281 c 1,121,-1
 599.121 181.188 l 1,122,123
 557.075 123.327 557.075 123.327 490.898 97.0547 c 128,-1,124
 424.723 70.7812 424.723 70.7812 352.354 82.5576 c 128,-1,125
 279.985 94.334 279.985 94.334 221.809 143.062 c 0,126,127
 180.253 177.359 180.253 177.359 156.67 230.98 c 128,-1,128
 133.086 284.603 133.086 284.603 131.371 346.031 c 0,129,130
 129.628 408.441 129.628 408.441 153.53 464.868 c 128,-1,131
 177.434 521.296 177.434 521.296 227.027 558.75 c 0,132,133
 298.056 612.392 298.056 612.392 377.965 615.938 c 1,92,-1
402.965 615.75 m 1,134,135
 433.685 613.948 433.685 613.948 462.777 604.625 c 0,136,137
 507.809 590.192 507.809 590.192 551.246 556.375 c 0,138,139
 559.453 549.958 559.453 549.958 572.3 536.46 c 1,140,-1
 556.277 526.375 l 1,141,142
 548.034 533.531 548.034 533.531 538.965 540.594 c 0,143,144
 498.3 572.255 498.3 572.255 456.684 585.594 c 0,145,146
 430.261 594.062 430.261 594.062 402.965 595.906 c 1,147,-1
 402.965 615.75 l 1,134,135
608.162 146.273 m 1,148,-1
 625.496 135.625 l 1,149,150
 585.296 88.915 585.296 88.915 528.492 61.7324 c 128,-1,151
 471.689 34.5508 471.689 34.5508 408.652 31.625 c 1,152,-1
 408.652 51.5625 l 1,153,154
 464.931 53.5215 464.931 53.5215 518.885 79.209 c 128,-1,155
 572.839 104.896 572.839 104.896 608.162 146.273 c 1,148,-1
EndSplineSet
Validated: 33
Position2: "'cpsp' Capital Spacing in Latin lookup 0 subtable" dx=7 dy=0 dh=14 dv=0
EndChar

StartChar: D
Encoding: 68 68 2
Width: 743
Flags: W
LayerCount: 2
Fore
SplineSet
194.062 693.625 m 0,0,1
 342.491 693.81 342.491 693.81 405.282 687.094 c 0,2,3
 490.986 677.927 490.986 677.927 559.211 630.437 c 128,-1,4
 627.437 582.946 627.437 582.946 664.48 514.015 c 128,-1,5
 701.525 445.083 701.525 445.083 704.97 367.656 c 0,6,7
 710.787 236.848 710.787 236.848 637.188 133.938 c 0,8,9
 598.512 79.8574 598.512 79.8574 539.156 44.873 c 128,-1,10
 479.802 9.88867 479.802 9.88867 408.376 4.65625 c 0,11,12
 366.01 1.55273 366.01 1.55273 298.924 0.544922 c 128,-1,13
 231.838 -0.462891 231.838 -0.462891 185.936 0.0810547 c 2,14,-1
 140.032 0.625 l 1,15,-1
 107.001 0.625 l 1,16,-1
 107.001 614.125 l 1,17,-1
 107.001 648.094 l 1,18,19
 117.729 648.153 117.729 648.153 147.8 648.354 c 128,-1,20
 177.87 648.555 177.87 648.555 194.126 648.625 c 0,21,22
 340.08 648.806 340.08 648.806 400.501 642.344 c 0,23,24
 512.457 630.369 512.457 630.369 583.93 549.707 c 128,-1,25
 655.401 469.045 655.401 469.045 660.001 365.656 c 0,26,27
 665.129 250.36 665.129 250.36 600.595 160.125 c 0,28,29
 567.497 113.846 567.497 113.846 516.847 83.9268 c 128,-1,30
 466.195 54.0068 466.195 54.0068 405.095 49.5312 c 0,31,32
 322.492 43.4795 322.492 43.4795 152.095 45.5 c 1,33,-1
 152.095 65.5 l 1,34,35
 322.896 63.5547 322.896 63.5547 403.626 69.4688 c 0,36,37
 460.142 73.6084 460.142 73.6084 506.912 101.265 c 128,-1,38
 553.683 128.921 553.683 128.921 584.312 171.75 c 0,39,40
 644.852 256.398 644.852 256.398 640.032 364.781 c 0,41,42
 635.751 461.023 635.751 461.023 569.362 536.152 c 128,-1,43
 502.974 611.28 502.974 611.28 398.376 622.469 c 0,44,45
 339.125 628.805 339.125 628.805 194.157 628.625 c 0,46,47
 181.789 628.607 181.789 628.607 159.534 628.433 c 128,-1,48
 137.278 628.259 137.278 628.259 127.001 628.219 c 1,49,-1
 127.001 614.125 l 1,50,-1
 127.001 113.625 l 1,51,52
 138.538 113.62 138.538 113.62 170.296 113.651 c 128,-1,53
 202.054 113.682 202.054 113.682 220.345 113.655 c 0,54,55
 346.208 113.708 346.208 113.708 400.095 117.655 c 0,56,57
 491.018 124.317 491.018 124.317 545.032 199.843 c 0,58,59
 587.997 259.922 587.997 259.922 591.72 338 c 1,60,-1
 611.751 338 l 1,61,62
 608.063 253.587 608.063 253.587 561.312 188.218 c 0,63,64
 534.049 150.095 534.049 150.095 492.949 125.748 c 128,-1,65
 451.85 101.402 451.85 101.402 401.563 97.7178 c 0,66,67
 346.819 93.708 346.819 93.708 220.345 93.6553 c 2,68,-1
 207.595 93.6553 l 1,69,-1
 175.313 93.625 l 1,70,-1
 155.313 93.625 l 1,71,-1
 127.001 93.625 l 1,72,73
 127.001 83.4434 127.001 83.4434 127.097 58.8594 c 128,-1,74
 127.191 34.2754 127.191 34.2754 127.157 20.8125 c 1,75,-1
 140.313 20.625 l 1,76,-1
 140.375 20.625 l 1,77,78
 313.935 17.7832 313.935 17.7832 406.906 24.5938 c 0,79,80
 473.743 29.4902 473.743 29.4902 529.227 62.2197 c 128,-1,81
 584.71 94.9502 584.71 94.9502 620.906 145.562 c 0,82,83
 690.51 242.886 690.51 242.886 685 366.781 c 0,84,85
 680.002 479.159 680.002 479.159 602.172 566.708 c 128,-1,86
 524.342 654.257 524.342 654.257 403.156 667.219 c 0,87,88
 341.545 673.809 341.545 673.809 194.094 673.625 c 0,89,90
 177.142 673.601 177.142 673.601 139.944 673.288 c 128,-1,91
 102.747 672.976 102.747 672.976 82 672.938 c 1,92,-1
 82 614.125 l 1,93,-1
 82 1.75 l 1,94,-1
 62 1.75 l 1,95,-1
 62 79.7812 l 1,96,-1
 62 614.125 l 1,97,-1
 62 692.812 l 1,98,-1
 140.688 693.281 l 2,99,100
 152.184 693.429 152.184 693.429 170.594 693.531 c 0,101,102
 185.747 693.614 185.747 693.614 194.062 693.625 c 0,0,1
155.312 599.906 m 1,103,-1
 175.469 599.75 l 1,104,-1
 220.844 599.375 l 2,105,106
 358.793 598.226 358.793 598.226 395.375 594.312 c 0,107,108
 489.676 584.226 489.676 584.226 548.797 516.952 c 128,-1,109
 607.917 449.679 607.917 449.679 611.75 363.5 c 1,110,-1
 611.781 363 l 1,111,-1
 591.75 363 l 1,112,113
 588.096 442.119 588.096 442.119 534.147 503.628 c 128,-1,114
 480.199 565.137 480.199 565.137 393.25 574.438 c 0,115,116
 357.762 578.233 357.762 578.233 220.688 579.375 c 2,117,-1
 175.312 579.75 l 1,118,-1
 175.312 534.375 l 1,119,-1
 175.312 158.656 l 1,120,-1
 175.312 138.719 l 1,121,-1
 155.312 138.719 l 1,122,-1
 155.312 158.656 l 1,123,-1
 155.312 534.375 l 1,124,-1
 155.312 579.75 l 1,125,-1
 155.312 599.906 l 1,103,-1
200.312 554.531 m 1,126,-1
 220.406 554.375 l 1,127,-1
 220.406 534.375 l 1,128,-1
 220.312 158.656 l 1,129,130
 344.607 158.707 344.607 158.707 396.812 162.531 c 0,131,132
 466.687 167.649 466.687 167.649 508.438 226.031 c 128,-1,133
 550.201 284.429 550.201 284.429 546.812 360.625 c 0,134,135
 543.933 425.377 543.933 425.377 502.052 473.698 c 128,-1,136
 460.17 522.019 460.17 522.019 388.469 529.688 c 0,137,138
 357.714 532.977 357.714 532.977 245.406 534.156 c 1,139,-1
 245.406 554.156 l 1,140,141
 358.044 553.045 358.044 553.045 390.594 549.562 c 0,142,143
 469.12 541.163 469.12 541.163 516.367 486.923 c 128,-1,144
 563.615 432.682 563.615 432.682 566.781 361.5 c 0,145,146
 570.478 278.391 570.478 278.391 524.719 214.406 c 0,147,148
 477.512 148.398 477.512 148.398 398.281 142.594 c 0,149,150
 345.252 138.709 345.252 138.709 220.312 138.656 c 2,151,-1
 200.312 138.656 l 1,152,-1
 200.312 158.656 l 1,153,-1
 200.312 534.375 l 1,154,-1
 200.312 554.531 l 1,126,-1
165.312 138.719 m 1,155,-1
 165.312 93.625 l 1,156,-1
EndSplineSet
Validated: 35
Position2: "'cpsp' Capital Spacing in Latin lookup 0 subtable" dx=7 dy=0 dh=14 dv=0
EndChar

StartChar: E
Encoding: 69 69 3
Width: 662
Flags: W
LayerCount: 2
Fore
SplineSet
61.9941 693.667 m 1,0,-1
 621.467 693.667 l 1,1,-1
 621.457 673.667 l 1,2,-1
 81.9941 673.667 l 1,3,-1
 81.9941 19.1045 l 1,4,-1
 605.275 19.1045 l 1,5,-1
 605.275 92.417 l 1,6,-1
 155.307 92.417 l 1,7,-1
 155.307 335.854 l 1,8,-1
 520.807 335.854 l 1,9,-1
 520.807 364.167 l 1,10,-1
 155.307 364.167 l 1,11,-1
 155.307 600.354 l 1,12,-1
 576.463 600.354 l 1,13,-1
 576.463 580.354 l 1,14,-1
 175.307 580.354 l 1,15,-1
 175.307 384.167 l 1,16,-1
 540.807 384.167 l 1,17,-1
 540.807 315.854 l 1,18,-1
 175.307 315.854 l 1,19,-1
 175.307 112.417 l 1,20,-1
 625.275 112.417 l 1,21,-1
 625.275 -0.895508 l 1,22,-1
 61.9941 -0.895508 l 1,23,-1
 61.9941 693.667 l 1,0,-1
106.994 648.667 m 1,24,-1
 621.463 648.667 l 1,25,-1
 621.463 535.354 l 1,26,-1
 220.307 535.354 l 1,27,-1
 220.307 429.167 l 1,28,-1
 585.807 429.167 l 1,29,-1
 585.807 270.854 l 1,30,-1
 220.307 270.854 l 1,31,-1
 220.307 157.417 l 1,32,-1
 625.275 157.417 l 1,33,-1
 625.275 137.417 l 1,34,-1
 200.307 137.417 l 1,35,-1
 200.307 290.854 l 1,36,-1
 565.807 290.854 l 1,37,-1
 565.807 409.167 l 1,38,-1
 200.307 409.167 l 1,39,-1
 200.307 555.354 l 1,40,-1
 601.463 555.354 l 1,41,-1
 601.463 628.667 l 1,42,-1
 126.994 628.667 l 1,43,-1
 126.994 64.1045 l 1,44,-1
 580.275 64.1045 l 1,45,-1
 580.275 44.1045 l 1,46,-1
 106.994 44.1045 l 1,47,-1
 106.994 648.667 l 1,24,-1
EndSplineSet
Validated: 1
Position2: "'cpsp' Capital Spacing in Latin lookup 0 subtable" dx=7 dy=0 dh=14 dv=0
EndChar

StartChar: F
Encoding: 70 70 4
Width: 647
Flags: W
LayerCount: 2
Fore
SplineSet
61.9941 693.667 m 1,0,-1
 621.463 693.667 l 1,1,-1
 621.463 673.667 l 1,2,-1
 81.9941 673.667 l 1,3,-1
 81.9941 20.0107 l 1,4,-1
 155.307 20.0107 l 1,5,-1
 155.307 312.948 l 1,6,-1
 540.807 312.948 l 1,7,-1
 540.807 292.948 l 1,8,-1
 175.307 292.948 l 1,9,-1
 175.307 20.0107 l 1,10,-1
 200.307 20.0107 l 1,11,-1
 200.307 267.948 l 1,12,-1
 565.807 267.948 l 1,13,-1
 565.807 341.261 l 1,14,-1
 155.307 341.261 l 1,15,-1
 155.307 600.354 l 1,16,-1
 576.463 600.354 l 1,17,-1
 576.463 580.354 l 1,18,-1
 175.307 580.354 l 1,19,-1
 175.307 361.261 l 1,20,-1
 585.807 361.261 l 1,21,-1
 585.807 247.948 l 1,22,-1
 220.307 247.948 l 1,23,-1
 220.307 0.0107422 l 1,24,-1
 61.9941 0.0107422 l 1,25,-1
 61.9941 693.667 l 1,0,-1
621.463 648.667 m 1,26,-1
 621.463 535.354 l 1,27,-1
 220.307 535.354 l 1,28,-1
 220.307 406.261 l 1,29,-1
 585.807 406.261 l 1,30,-1
 585.807 386.261 l 1,31,-1
 200.307 386.261 l 1,32,-1
 200.307 555.354 l 1,33,-1
 601.463 555.354 l 1,34,-1
 601.463 628.667 l 1,35,-1
 126.994 628.667 l 1,36,-1
 126.994 45.0107 l 1,37,-1
 106.994 45.0107 l 1,38,-1
 106.994 648.667 l 1,39,-1
 621.463 648.667 l 1,26,-1
EndSplineSet
Validated: 1
Position2: "'cpsp' Capital Spacing in Latin lookup 0 subtable" dx=7 dy=0 dh=14 dv=0
EndChar

StartChar: G
Encoding: 71 71 5
Width: 758
Flags: W
LayerCount: 2
Fore
SplineSet
400.562 709.375 m 0,0,1
 444.327 709.607 444.327 709.607 485.905 699.625 c 0,2,3
 592.106 674.126 592.106 674.126 677.312 598.719 c 1,4,-1
 572.405 480.188 l 1,5,6
 516.812 529.391 516.812 529.391 448.937 545.688 c 0,7,8
 420.551 551.632 420.551 551.632 393.516 552.433 c 128,-1,9
 366.479 553.233 366.479 553.233 333.392 541.078 c 128,-1,10
 300.304 528.922 300.304 528.922 266.062 503.062 c 0,11,12
 193.28 448.096 193.28 448.096 196.187 344.031 c 0,13,14
 197.479 297.779 197.479 297.779 216.412 255.018 c 128,-1,15
 235.346 212.255 235.346 212.255 263.03 189.406 c 0,16,17
 288.531 168.36 288.531 168.36 335.802 157.062 c 128,-1,18
 383.071 145.765 383.071 145.765 442.935 150.875 c 128,-1,19
 502.797 155.986 502.797 155.986 551.593 181.125 c 1,20,21
 551.597 182.606 551.597 182.606 551.937 242.562 c 0,22,23
 551.948 244.838 551.948 244.838 551.968 246.887 c 128,-1,24
 551.987 248.936 551.987 248.936 551.999 250.844 c 1,25,-1
 392.03 250.844 l 1,26,-1
 392.03 409.156 l 1,27,-1
 631.718 409.156 l 1,28,-1
 711.562 409.156 l 1,29,-1
 711.356 387.187 l 1,30,-1
 711.374 389.156 l 1,31,-1
 412.03 389.156 l 1,32,-1
 412.03 270.844 l 1,33,-1
 551.999 270.844 l 1,34,-1
 572.124 270.844 l 1,35,-1
 571.999 250.719 l 2,36,37
 571.987 248.603 571.987 248.603 571.968 246.592 c 128,-1,38
 571.948 244.581 571.948 244.581 571.937 242.469 c 0,39,40
 571.597 182.261 571.597 182.261 571.593 181.062 c 2,41,-1
 571.562 168.906 l 1,42,-1
 560.75 163.344 l 2,43,44
 483.284 123.434 483.284 123.434 385.75 130.094 c 0,45,46
 296.053 136.218 296.053 136.218 250.312 173.969 c 0,47,48
 218.16 200.505 218.16 200.505 197.888 246.423 c 128,-1,49
 177.615 292.341 177.615 292.341 176.188 343.469 c 0,50,51
 172.991 457.854 172.991 457.854 254 519.031 c 0,52,53
 348.458 590.367 348.458 590.367 453.594 565.125 c 0,54,55
 514.186 550.577 514.186 550.577 570.125 507.781 c 1,56,-1
 648.75 596.625 l 1,57,58
 572.248 658.34 572.248 658.34 481.25 680.188 c 0,59,60
 442.083 689.592 442.083 689.592 400.688 689.375 c 0,61,62
 398.795 689.365 398.795 689.365 394.938 689.281 c 0,63,64
 279.831 686.777 279.831 686.777 182.719 613.438 c 0,65,66
 123.001 568.338 123.001 568.338 91.8574 502.403 c 128,-1,67
 60.7148 436.468 60.7148 436.468 58.0625 363.688 c 1,68,-1
 38.0625 363.688 l 1,69,70
 40.7471 440.864 40.7471 440.864 73.8555 511.085 c 128,-1,71
 106.964 581.305 106.964 581.305 170.656 629.406 c 0,72,73
 272.919 706.637 272.919 706.637 394.5 709.281 c 0,74,75
 398.245 709.362 398.245 709.362 400.562 709.375 c 0,0,1
400.812 664.375 m 0,76,77
 439.156 664.579 439.156 664.579 475.406 655.875 c 0,78,79
 547.697 638.518 547.697 638.518 612.062 592.875 c 1,80,-1
 566.438 541.312 l 1,81,82
 514.698 576.169 514.698 576.169 459.438 589.438 c 0,83,84
 434.303 595.472 434.303 595.472 409.188 596.406 c 1,85,-1
 409.188 616.25 l 1,86,87
 437.026 615.374 437.026 615.374 464.094 608.875 c 0,88,89
 514.646 596.738 514.646 596.738 562.781 567.344 c 1,90,-1
 581.875 588.938 l 1,91,92
 528.557 622.559 528.557 622.559 470.75 636.438 c 0,93,94
 436.907 644.563 436.907 644.563 400.938 644.375 c 0,95,96
 400.048 644.37 400.048 644.37 395.906 644.281 c 0,97,98
 295.333 642.094 295.333 642.094 209.844 577.531 c 0,99,100
 154.476 535.717 154.476 535.717 127.748 472.871 c 128,-1,101
 101.021 410.026 101.021 410.026 102.938 341.406 c 0,102,103
 104.82 274.005 104.82 274.005 130.876 215.018 c 128,-1,104
 156.933 156.03 156.933 156.03 203.656 117.469 c 0,105,106
 281.325 53.3672 281.325 53.3672 398.188 50.125 c 1,107,-1
 398.188 29.75 l 1,108,109
 274.597 32.9863 274.597 32.9863 190.938 102.031 c 0,110,111
 140.535 143.629 140.535 143.629 112.734 206.508 c 128,-1,112
 84.9326 269.388 84.9326 269.388 82.9375 340.844 c 0,113,114
 80.8965 413.892 80.8965 413.892 109.585 481.225 c 128,-1,115
 138.272 548.558 138.272 548.558 197.781 593.5 c 0,116,117
 288.424 661.954 288.424 661.954 395.469 664.281 c 0,118,119
 399.295 664.365 399.295 664.365 400.812 664.375 c 0,76,77
384.188 615.875 m 1,120,-1
 384.188 596.062 l 1,121,122
 307.922 591.065 307.922 591.065 238.938 538.969 c 0,123,124
 193.455 504.619 193.455 504.619 171.525 452.745 c 128,-1,125
 149.596 400.87 149.596 400.87 151.219 342.781 c 0,126,127
 152.817 285.53 152.817 285.53 174.734 235.676 c 128,-1,128
 196.651 185.821 196.651 185.821 234.375 154.688 c 0,129,130
 289.867 108.89 289.867 108.89 384.062 102.457 c 0,131,132
 483.929 95.6387 483.929 95.6387 572.219 141.125 c 2,133,-1
 596.531 153.656 l 1,134,-1
 596.594 181 l 2,135,136
 596.596 181.859 596.596 181.859 596.938 242.312 c 0,137,138
 596.949 244.49 596.949 244.49 596.969 246.504 c 128,-1,139
 596.987 248.517 596.987 248.517 597 250.562 c 2,140,-1
 597.281 295.844 l 1,141,-1
 552 295.844 l 1,142,-1
 437.031 295.844 l 1,143,-1
 437.031 364.156 l 1,144,-1
 711.156 364.156 l 1,145,-1
 710.875 329.312 l 2,146,147
 710.506 286.758 710.506 286.758 710.25 241.656 c 0,148,149
 710.135 221.283 710.135 221.283 710.119 196.49 c 128,-1,150
 710.104 171.697 710.104 171.697 710.145 156.634 c 128,-1,151
 710.185 141.57 710.185 141.57 710.219 140.719 c 2,152,-1
 711.906 98.8438 l 1,153,-1
 678.188 73.9375 l 1,154,155
 549.373 -16.7119 549.373 -16.7119 405.714 -15.8721 c 128,-1,156
 262.055 -15.0322 262.055 -15.0322 162.281 67.3125 c 0,157,158
 103.86 115.528 103.86 115.528 72.1377 186.955 c 128,-1,159
 40.415 258.381 40.415 258.381 38 338.688 c 1,160,-1
 58.0312 338.688 l 1,161,162
 60.4336 262.567 60.4336 262.567 90.3809 195.22 c 128,-1,163
 120.327 127.873 120.327 127.873 175 82.75 c 0,164,165
 268.951 5.21094 268.951 5.21094 405.781 4.3623 c 128,-1,166
 542.612 3.51465 542.612 3.51465 666.28 90.0312 c 0,167,-1
 691.499 108.656 l 1,168,-1
 690.249 139.906 l 2,169,170
 690.199 141.175 690.199 141.175 690.187 143.469 c 0,171,172
 690.167 147.191 690.167 147.191 690.155 150.624 c 0,173,174
 690.146 153.539 690.146 153.539 690.125 174.719 c 2,175,-1
 690.25 241.78 l 1,176,-1
 690.966 344.155 l 1,177,-1
 457.031 344.155 l 1,178,-1
 457.031 315.843 l 1,179,-1
 552 315.843 l 1,180,-1
 597.281 315.843 l 1,181,-1
 617.406 315.843 l 1,182,-1
 617.281 295.718 l 1,183,-1
 617 250.437 l 2,184,185
 616.988 248.267 616.988 248.267 616.969 246.27 c 128,-1,186
 616.949 244.272 616.949 244.272 616.938 242.218 c 0,187,188
 616.599 182.521 616.599 182.521 616.594 180.969 c 0,189,-1
 616.531 153.625 l 1,190,-1
 616.5 141.438 l 1,191,-1
 605.688 135.875 l 1,192,-1
 581.375 123.344 l 2,193,194
 488.102 75.291 488.102 75.291 382.688 82.4883 c 0,195,196
 282.111 89.3555 282.111 89.3555 221.656 139.25 c 0,197,198
 180.101 173.547 180.101 173.547 156.518 227.168 c 128,-1,199
 132.935 280.79 132.935 280.79 131.219 342.219 c 0,200,201
 129.476 404.63 129.476 404.63 153.378 461.057 c 128,-1,202
 177.281 517.483 177.281 517.483 226.875 554.938 c 0,203,204
 300.656 610.658 300.656 610.658 384.188 615.875 c 1,120,-1
645.781 315.843 m 1,205,-1
 665.781 315.843 l 1,206,207
 665.431 273.577 665.431 273.577 665.25 241.906 c 0,208,209
 665.091 212.884 665.091 212.884 665.125 174.688 c 2,210,-1
 665.125 162.625 l 2,211,212
 664.946 162.6 664.946 162.6 664.25 162.531 c 1,213,214
 664.445 162.542 664.445 162.542 664.741 162.564 c 0,215,-1
 665.156 150.531 l 2,216,217
 665.171 146.114 665.171 146.114 665.188 143.344 c 0,218,219
 665.206 140.02 665.206 140.02 665.249 138.938 c 0,220,-1
 665.968 120.875 l 1,221,-1
 651.437 110.125 l 2,222,223
 549.181 34.5137 549.181 34.5137 423.187 29.9062 c 1,224,-1
 423.187 50.2812 l 1,225,226
 542.96 54.8096 542.96 54.8096 639.53 126.22 c 2,227,-1
 645.562 130.688 l 1,228,-1
 645.28 138.125 l 1,229,-1
 645.249 138.5 l 1,230,-1
 645.249 138.906 l 2,231,232
 645.235 139.31 645.235 139.31 645.205 140.011 c 0,233,234
 645.164 140.964 645.164 140.964 645.155 141.281 c 0,235,236
 645.101 143.265 645.101 143.265 645.249 144.719 c 0,237,238
 645.338 145.582 645.338 145.582 645.344 145.719 c 129,-1,239
 645.334 145.66 645.334 145.66 645.264 145.434 c 1,240,241
 645.185 145.727 645.185 145.727 645.173 147.468 c 128,-1,242
 645.162 149.21 645.162 149.21 645.156 150.469 c 0,243,244
 645.146 153.631 645.146 153.631 645.125 174.656 c 0,245,246
 645.09 213.67 645.09 213.67 645.25 242.031 c 0,247,248
 645.421 272.079 645.421 272.079 645.781 315.843 c 1,205,-1
661.25 162.25 m 1,249,-1
 660.375 162.156 l 1,250,-1
 656.969 160.625 l 1,251,-1
 661.25 162.25 l 1,249,-1
654.312 159.469 m 1,252,-1
 653.031 158.438 l 1,253,-1
 654.312 159.469 l 1,252,-1
EndSplineSet
Validated: 41
Position2: "'cpsp' Capital Spacing in Latin lookup 0 subtable" dx=7 dy=0 dh=14 dv=0
EndChar

StartChar: H
Encoding: 72 72 6
Width: 723
Flags: W
LayerCount: 2
Fore
SplineSet
62 694.656 m 1,0,-1
 82 694.656 l 1,1,-1
 82 20 l 1,2,-1
 155.281 20 l 1,3,-1
 155.281 649.656 l 1,4,-1
 175.281 649.656 l 1,5,-1
 175.281 20 l 1,6,-1
 200.281 20 l 1,7,-1
 200.281 289.969 l 1,8,-1
 200.656 290.094 l 1,9,-1
 502.812 290.094 l 1,10,-1
 502.812 315.094 l 1,11,-1
 200.656 315.094 l 1,12,-1
 200.656 335.094 l 1,13,-1
 522.812 335.094 l 1,14,-1
 522.812 20 l 1,15,-1
 596.125 20 l 1,16,-1
 596.125 649.656 l 1,17,-1
 616.125 649.656 l 1,18,-1
 616.125 0 l 1,19,-1
 502.812 0 l 1,20,-1
 502.812 270.094 l 1,21,-1
 220.281 270.094 l 1,22,-1
 220.281 0 l 1,23,-1
 62 0 l 1,24,-1
 62 694.656 l 1,0,-1
107 694.656 m 1,25,-1
 220.281 694.656 l 1,26,-1
 220.281 428.375 l 1,27,-1
 502.812 428.375 l 1,28,-1
 502.812 694.656 l 1,29,-1
 661.125 694.656 l 1,30,-1
 661.125 0 l 1,31,-1
 641.125 0 l 1,32,-1
 641.125 674.656 l 1,33,-1
 567.812 674.656 l 1,34,-1
 567.812 45 l 1,35,-1
 547.812 45 l 1,36,-1
 547.812 363.375 l 1,37,-1
 200.656 363.375 l 1,38,-1
 200.656 383.375 l 1,39,-1
 547.812 383.375 l 1,40,-1
 547.812 674.656 l 1,41,-1
 522.812 674.656 l 1,42,-1
 522.812 408.375 l 1,43,-1
 200.281 408.375 l 1,44,-1
 200.281 674.656 l 1,45,-1
 127 674.656 l 1,46,-1
 127 45 l 1,47,-1
 107 45 l 1,48,-1
 107 694.656 l 1,25,-1
EndSplineSet
Validated: 1
Position2: "'cpsp' Capital Spacing in Latin lookup 0 subtable" dx=7 dy=0 dh=14 dv=0
EndChar

StartChar: I
Encoding: 73 73 7
Width: 290
Flags: W
LayerCount: 2
Fore
SplineSet
66 696 m 1,0,-1
 86 696 l 1,1,-1
 86 19.4375 l 1,2,-1
 159.281 19.4375 l 1,3,-1
 159.281 651 l 1,4,-1
 179.281 651 l 1,5,-1
 179.281 -0.5625 l 1,6,-1
 66 -0.5625 l 1,7,-1
 66 696 l 1,0,-1
111 696 m 1,8,-1
 224.281 696 l 1,9,-1
 224.281 -0.5625 l 1,10,-1
 204.281 -0.5625 l 1,11,-1
 204.281 676 l 1,12,-1
 131 675.438 l 1,13,-1
 131 44.4375 l 1,14,-1
 111 44.4375 l 1,15,-1
 111 696 l 1,8,-1
EndSplineSet
Validated: 1
Position2: "'cpsp' Capital Spacing in Latin lookup 0 subtable" dx=7 dy=0 dh=14 dv=0
EndChar

StartChar: J
Encoding: 74 74 8
Width: 541
Flags: W
LayerCount: 2
Fore
SplineSet
487.971 694.698 m 1,0,-1
 487.971 674.604 l 1,1,-1
 349.689 674.604 l 1,2,3
 349.914 301.03 349.914 301.03 349.689 223.479 c 0,4,-1
 349.689 223.261 l 1,5,-1
 349.689 223.104 l 2,6,7
 349.435 188.159 349.435 188.159 319.439 158.104 c 0,8,9
 289.782 128.389 289.782 128.389 254.971 127.229 c 0,10,11
 180.028 124.732 180.028 124.732 121.877 184.761 c 1,12,-1
 66.377 136.448 l 1,13,14
 82.1582 120.465 82.1582 120.465 100.471 106.479 c 0,15,16
 172.516 51.1504 172.516 51.1504 257.439 53.9795 c 0,17,18
 326.213 56.2705 326.213 56.2705 374.491 105.17 c 128,-1,19
 422.771 154.068 422.771 154.068 422.971 223.229 c 0,20,21
 423.125 276.119 423.125 276.119 423.064 489.823 c 0,22,23
 423.06 515.663 423.06 515.663 423.031 559.2 c 128,-1,24
 423.004 602.737 423.004 602.737 423.003 604.636 c 1,25,-1
 443.003 604.636 l 1,26,27
 443.006 597.43 443.006 597.43 443.032 556.349 c 128,-1,28
 443.059 515.269 443.059 515.269 443.064 489.823 c 0,29,30
 443.123 275.578 443.123 275.578 442.971 223.167 c 0,31,32
 442.748 146.044 442.748 146.044 388.74 91.2881 c 128,-1,33
 334.733 36.5322 334.733 36.5322 258.096 33.9795 c 0,34,35
 154.364 30.5244 154.364 30.5244 69.5957 106.104 c 0,36,37
 62.1943 112.306 62.1943 112.306 51.5547 123.067 c 2,38,-1
 37.9922 138.294 l 1,39,-1
 123.408 212.604 l 1,40,41
 154.968 176.341 154.968 176.341 183.375 161.077 c 128,-1,42
 211.781 145.812 211.781 145.812 254.314 147.229 c 0,43,44
 281.232 148.126 281.232 148.126 305.363 172.305 c 128,-1,45
 329.494 196.482 329.494 196.482 329.689 223.261 c 2,46,-1
 329.689 223.479 l 1,47,-1
 329.689 694.573 l 1,48,-1
 487.971 694.698 l 1,0,-1
487.971 649.667 m 1,49,-1
 487.97 223.041 l 2,50,51
 487.695 127.914 487.695 127.914 420.871 60.0352 c 128,-1,52
 354.048 -7.84375 354.048 -7.84375 259.595 -10.9902 c 0,53,54
 181.842 -13.5801 181.842 -13.5801 116.814 20.0889 c 128,-1,55
 51.7871 53.7568 51.7871 53.7568 4.00098 108.666 c 1,56,-1
 19.0635 121.791 l 1,57,58
 20.5742 120.156 20.5742 120.156 22.8125 117.635 c 128,-1,59
 25.0518 115.113 25.0518 115.113 27.3174 112.66 c 128,-1,60
 29.583 110.207 29.583 110.207 32.6572 107.072 c 0,61,62
 131.426 4.7627 131.426 4.7627 258.938 9.00977 c 0,63,64
 345.474 11.8926 345.474 11.8926 406.596 73.9355 c 128,-1,65
 467.719 135.979 467.719 135.979 467.97 223.104 c 0,66,67
 468.124 276.297 468.124 276.297 468.063 489.854 c 2,68,-1
 468.002 629.635 l 1,69,-1
 394.689 629.635 l 1,70,71
 394.884 290.977 394.884 290.977 394.689 223.479 c 0,72,-1
 394.689 223.354 l 1,73,-1
 394.689 223.104 l 1,74,-1
 394.689 222.854 l 2,75,76
 394.301 169.395 394.301 169.395 351.314 126.323 c 0,77,78
 309.089 84.0146 309.089 84.0146 256.471 82.2607 c 0,79,80
 183.177 79.8203 183.177 79.8203 122.033 125.229 c 0,81,82
 117.257 129.781 117.257 129.781 107.993 139.44 c 1,83,-1
 121.408 151.198 l 1,84,85
 181.636 99.791 181.636 99.791 255.814 102.261 c 0,86,87
 300.533 103.751 300.533 103.751 337.158 140.448 c 0,88,89
 374.36 177.722 374.36 177.722 374.689 222.917 c 0,90,-1
 374.689 223.261 l 1,91,-1
 374.689 223.479 l 2,92,93
 374.893 294.084 374.893 294.084 374.689 649.604 c 1,94,-1
 487.971 649.667 l 1,49,-1
EndSplineSet
Validated: 33
Position2: "'cpsp' Capital Spacing in Latin lookup 0 subtable" dx=7 dy=0 dh=14 dv=0
EndChar

StartChar: K
Encoding: 75 75 9
Width: 686
Flags: W
LayerCount: 2
Fore
SplineSet
481.312 695.188 m 1,0,-1
 507.938 695.188 l 1,1,-1
 235.344 385.281 l 1,2,-1
 155.312 295.281 l 1,3,-1
 155.312 649 l 1,4,-1
 175.312 649 l 1,5,-1
 175.312 348.627 l 1,6,-1
 200.312 376.29 l 1,7,-1
 200.312 398.5 l 1,8,-1
 200.312 674 l 1,9,-1
 127 674 l 1,10,-1
 127 377.906 l 1,11,-1
 107 377.906 l 1,12,-1
 107 694 l 1,13,-1
 220.312 694 l 1,14,-1
 220.312 398.5 l 1,15,-1
 481.312 695.188 l 1,0,-1
541 695.188 m 1,16,-1
 692.156 695.188 l 1,17,-1
 422.344 388.5 l 1,18,-1
 685.594 -0.46875 l 1,19,-1
 494.438 -0.46875 l 1,20,-1
 314.312 265.688 l 1,21,-1
 220.312 158.844 l 1,22,-1
 220.312 -0.46875 l 1,23,-1
 200.312 -0.5 l 1,24,-1
 200.312 166.375 l 1,25,-1
 299.312 278.906 l 1,26,-1
 316.375 298.312 l 1,27,-1
 330.875 276.906 l 1,28,-1
 505.062 19.5312 l 1,29,-1
 647.906 19.5312 l 1,30,-1
 405.781 377.281 l 1,31,-1
 397.125 390.094 l 1,32,-1
 407.344 401.719 l 1,33,-1
 647.938 675.188 l 1,34,-1
 550.062 675.188 l 1,35,-1
 337.5 433.312 l 1,36,-1
 353.906 409 l 1,37,-1
 373.562 431.438 l 1,38,-1
 373.531 431.438 l 1,39,-1
 566.125 650.188 l 1,40,-1
 592.625 650.188 l 1,41,-1
 388.562 418.219 l 1,42,-1
 365.562 392.094 l 1,43,-1
 385.062 363.281 l 1,44,-1
 600.781 44.5312 l 1,45,-1
 576.5 44.5312 l 1,46,-1
 323.938 418 l 1,47,-1
 269.125 355.562 l 1,48,-1
 190.344 266 l 1,49,-1
 155.312 226.188 l 1,50,-1
 155.312 256.469 l 1,51,-1
 254.094 368.781 l 1,52,-1
 541 695.188 l 1,16,-1
62 694 m 1,53,-1
 82 694 l 1,54,-1
 82 19.5312 l 1,55,-1
 107 19.5 l 1,56,-1
 107 352.906 l 1,57,-1
 127 352.906 l 1,58,-1
 127 19.5 l 1,59,-1
 155.312 19.5 l 1,60,-1
 155.312 183.344 l 1,61,-1
 265.5 308.625 l 1,62,-1
 303.938 352.312 l 1,63,-1
 321.031 371.719 l 1,64,-1
 335.531 350.312 l 1,65,-1
 368.156 302.125 l 1,66,-1
 542.25 44.5312 l 1,67,-1
 518.344 44.5312 l 1,68,-1
 351.594 290.906 l 1,69,-1
 318.969 339.094 l 1,70,-1
 280.531 295.406 l 1,71,-1
 175.312 175.812 l 1,72,-1
 175.312 -0.5 l 1,73,-1
 62 -0.46875 l 1,74,-1
 62 694 l 1,53,-1
EndSplineSet
Validated: 1
Position2: "'cpsp' Capital Spacing in Latin lookup 0 subtable" dx=7 dy=0 dh=14 dv=0
EndChar

StartChar: L
Encoding: 76 76 10
Width: 612
Flags: W
LayerCount: 2
Fore
SplineSet
62 694.5 m 1,0,-1
 82 694.5 l 1,1,-1
 82 20 l 1,2,-1
 570.531 20 l 1,3,-1
 570.531 95.6562 l 1,4,-1
 570.531 93.3125 l 1,5,-1
 175.312 93.3125 l 1,6,-1
 175.312 65 l 1,7,-1
 545.531 65 l 1,8,-1
 545.531 45 l 1,9,-1
 155.312 45 l 1,10,-1
 155.312 649.5 l 1,11,-1
 175.312 649.5 l 1,12,-1
 175.312 113.312 l 1,13,-1
 590.531 113.312 l 1,14,-1
 590.531 0 l 1,15,-1
 62 0 l 1,16,-1
 62 694.5 l 1,0,-1
107 694.5 m 1,17,-1
 220.312 694.5 l 1,18,-1
 220.312 158.312 l 1,19,-1
 590.531 158.312 l 1,20,-1
 590.531 138.312 l 1,21,-1
 200.312 138.312 l 1,22,-1
 200.312 674.5 l 1,23,-1
 127 674.5 l 1,24,-1
 127 45 l 1,25,-1
 107 45 l 1,26,-1
 107 694.5 l 1,17,-1
EndSplineSet
Validated: 5
Position2: "'cpsp' Capital Spacing in Latin lookup 0 subtable" dx=7 dy=0 dh=14 dv=0
EndChar

StartChar: M
Encoding: 77 77 11
Width: 827
Flags: W
LayerCount: 2
Fore
SplineSet
62 697.094 m 1,0,-1
 82 697.094 l 1,1,-1
 82 20 l 1,2,-1
 152 20 l 1,3,-1
 152 428.031 l 1,4,-1
 152 582.438 l 1,5,-1
 152 627.188 l 1,6,-1
 152 632.094 l 1,7,-1
 152 652.075 l 1,8,-1
 271.844 462.97 l 1,9,-1
 402.531 257.781 l 1,10,-1
 413.031 241.25 l 1,11,-1
 423.594 257.75 l 1,12,-1
 555.094 463.656 l 1,13,-1
 638.031 593.531 l 1,14,-1
 646.562 606.875 l 1,15,-1
 674.875 606.875 l 1,16,-1
 674.875 582.75 l 1,17,-1
 674.875 428.688 l 1,18,-1
 674.875 45 l 1,19,-1
 654.875 45 l 1,20,-1
 654.875 428.688 l 1,21,-1
 654.875 582.75 l 1,22,-1
 571.938 452.906 l 1,23,-1
 440.438 247 l 1,24,-1
 413 204.062 l 1,25,-1
 385.625 247.031 l 1,26,-1
 254.969 452.219 l 1,27,-1
 172 582.438 l 1,28,-1
 172 428.031 l 1,29,-1
 172 0 l 1,30,-1
 62 0 l 1,31,-1
 62 694 l 1,32,-1
 62 697.094 l 1,0,-1
107 697.094 m 1,33,-1
 229.406 697.094 l 1,34,-1
 413.156 408.625 l 1,35,-1
 597.406 697.094 l 1,36,-1
 764.875 697.094 l 1,37,-1
 764.875 694 l 1,38,-1
 764.875 0 l 1,39,-1
 744.875 0 l 1,40,-1
 744.875 677.094 l 1,41,-1
 608.375 677.094 l 1,42,-1
 430 397.844 l 1,43,-1
 413.125 371.438 l 1,44,-1
 396.281 397.875 l 1,45,-1
 218.438 677.094 l 1,46,-1
 188.787 677.094 l 1,47,-1
 375.188 384.438 l 1,48,-1
 413.094 324.938 l 1,49,-1
 451.094 384.406 l 1,50,-1
 622.062 652.094 l 1,51,-1
 719.875 652.094 l 1,52,-1
 719.875 0 l 1,53,-1
 609.875 0 l 1,54,-1
 609.875 428.688 l 1,55,-1
 478.375 222.781 l 1,56,-1
 412.969 120.375 l 1,57,-1
 347.688 222.844 l 1,58,-1
 217 428.031 l 1,59,-1
 217 0 l 1,60,-1
 197 0 l 1,61,-1
 197 428.031 l 1,62,-1
 197 496.656 l 1,63,-1
 233.875 438.781 l 1,64,-1
 364.562 233.594 l 1,65,-1
 413 157.562 l 1,66,-1
 461.531 233.531 l 1,67,-1
 593.031 439.438 l 1,68,-1
 629.875 497.156 l 1,69,-1
 629.875 428.688 l 1,70,-1
 629.875 20 l 1,71,-1
 699.875 20 l 1,72,-1
 699.875 632.094 l 1,73,-1
 633 632.094 l 1,74,-1
 467.938 373.656 l 1,75,-1
 429.938 314.156 l 1,76,-1
 413.062 287.75 l 1,77,-1
 396.219 314.188 l 1,78,-1
 358.312 373.688 l 1,79,-1
 165.081 677.094 l 1,80,-1
 127 677.094 l 1,81,-1
 127 669 l 1,82,-1
 127 652.094 l 1,83,-1
 127 632.094 l 1,84,-1
 127 627.188 l 1,85,-1
 127 45 l 1,86,-1
 107 45 l 1,87,-1
 107 648.156 l 1,88,-1
 107 652.094 l 1,89,-1
 107 671.062 l 1,90,-1
 107 677.094 l 1,91,-1
 107 697.094 l 1,33,-1
EndSplineSet
Validated: 1
Position2: "'cpsp' Capital Spacing in Latin lookup 0 subtable" dx=7 dy=0 dh=14 dv=0
EndChar

StartChar: N
Encoding: 78 78 12
Width: 749
Flags: W
LayerCount: 2
Fore
SplineSet
62 697.094 m 1,0,-1
 82 697.094 l 1,1,-1
 82 20 l 1,2,-1
 197 20 l 1,3,-1
 197 429.75 l 1,4,-1
 197 488.094 l 1,5,-1
 232.781 442.031 l 1,6,-1
 560.594 20 l 1,7,-1
 592.531 19.8311 l 1,8,-1
 252.531 457.344 l 1,9,-1
 172 561.031 l 1,10,-1
 172 429.75 l 1,11,-1
 172 45 l 1,12,-1
 107 45 l 1,13,-1
 107 697.094 l 1,14,-1
 205.594 697.094 l 1,15,-1
 531.625 277.375 l 1,16,-1
 531.625 696.312 l 1,17,-1
 551.625 696.312 l 1,18,-1
 551.625 277.375 l 1,19,-1
 551.625 219.031 l 1,20,-1
 515.844 265.094 l 1,21,-1
 195.812 677.094 l 1,22,-1
 164.031 677.094 l 1,23,-1
 496.094 249.781 l 1,24,-1
 576.625 146.094 l 1,25,-1
 576.625 277.375 l 1,26,-1
 576.625 696.312 l 1,27,-1
 686.625 696.312 l 1,28,-1
 686.625 51.2812 l 1,29,-1
 686.625 0 l 1,30,-1
 666.625 0 l 1,31,-1
 666.625 676.312 l 1,32,-1
 596.625 676.312 l 1,33,-1
 596.625 277.375 l 1,34,-1
 596.625 146.094 l 1,35,-1
 596.625 87.75 l 1,36,-1
 560.844 133.812 l 1,37,-1
 480.312 237.5 l 1,38,-1
 139.062 677.094 l 1,39,-1
 127 677.094 l 1,40,-1
 127 65 l 1,41,-1
 152 65 l 1,42,-1
 152 429.75 l 1,43,-1
 152 561.031 l 1,44,-1
 152 619.375 l 1,45,-1
 187.781 573.312 l 1,46,-1
 268.312 469.625 l 1,47,-1
 617.312 20.1689 l 1,48,-1
 621.625 20 l 1,49,-1
 621.625 651.312 l 1,50,-1
 641.625 651.312 l 1,51,-1
 641.625 0 l 1,52,-1
 550.812 0 l 1,53,-1
 547.906 3.75 l 1,54,-1
 217 429.75 l 1,55,-1
 217 0 l 1,56,-1
 62 0 l 1,57,-1
 62 655.812 l 1,58,-1
 62 697.094 l 1,0,-1
EndSplineSet
Validated: 1
Position2: "'cpsp' Capital Spacing in Latin lookup 0 subtable" dx=7 dy=0 dh=14 dv=0
EndChar

StartChar: O
Encoding: 79 79 13
Width: 821
Flags: W
LayerCount: 2
Fore
SplineSet
417.625 706.375 m 0,0,1
 519.317 706.975 519.317 706.975 603.933 656.008 c 128,-1,2
 688.548 605.04 688.548 605.04 735.134 522.421 c 128,-1,3
 781.719 439.802 781.719 439.802 781.719 346.375 c 0,4,5
 781.719 246.614 781.719 246.614 730.157 163.765 c 128,-1,6
 678.596 80.915 678.596 80.915 593.038 34.6289 c 128,-1,7
 507.48 -11.6562 507.48 -11.6562 408.406 -11.6562 c 0,8,9
 308.344 -11.6562 308.344 -11.6562 224.093 34.71 c 128,-1,10
 139.842 81.0762 139.842 81.0762 90.3564 160.794 c 128,-1,11
 40.8701 240.511 40.8701 240.511 38 335.688 c 1,12,-1
 58.0312 335.688 l 1,13,14
 62.3799 198.53 62.3799 198.53 163.253 103.437 c 128,-1,15
 264.126 8.34375 264.126 8.34375 408.406 8.34375 c 0,16,17
 502.375 8.34375 502.375 8.34375 583.343 52.0303 c 128,-1,18
 664.31 95.7168 664.31 95.7168 713.015 173.914 c 128,-1,19
 761.719 252.111 761.719 252.111 761.719 346.375 c 0,20,21
 761.719 434.386 761.719 434.386 717.822 512.387 c 128,-1,22
 673.925 590.388 673.925 590.388 593.953 638.665 c 128,-1,23
 513.982 686.942 513.982 686.942 417.75 686.375 c 0,24,25
 415.805 686.364 415.805 686.364 413.031 686.312 c 0,26,27
 320.667 684.556 320.667 684.556 241.237 643.408 c 128,-1,28
 161.809 602.261 161.809 602.261 111.896 527.646 c 128,-1,29
 61.9824 453.032 61.9824 453.032 58.1562 360.688 c 1,30,-1
 38.125 360.688 l 1,31,32
 41.9541 458.528 41.9541 458.528 94.7705 537.783 c 128,-1,33
 147.586 617.038 147.586 617.038 231.507 660.751 c 128,-1,34
 315.428 704.463 315.428 704.463 412.656 706.312 c 0,35,36
 415.338 706.361 415.338 706.361 417.625 706.375 c 0,0,1
417.906 661.375 m 0,37,38
 507.312 661.902 507.312 661.902 581.479 616.986 c 128,-1,39
 655.646 572.07 655.646 572.07 696.183 499.844 c 128,-1,40
 736.719 427.616 736.719 427.616 736.719 346.375 c 0,41,42
 736.719 220.337 736.719 220.337 647.985 131.671 c 128,-1,43
 559.253 43.0049 559.253 43.0049 432.531 34.1875 c 1,44,-1
 432.531 54.2188 l 1,45,46
 551.36 62.9395 551.36 62.9395 634.039 145.767 c 128,-1,47
 716.719 228.595 716.719 228.595 716.719 346.375 c 0,48,49
 716.719 422.192 716.719 422.192 678.865 489.803 c 128,-1,50
 641.011 557.412 641.011 557.412 571.488 599.641 c 128,-1,51
 501.965 641.87 501.965 641.87 418.031 641.375 c 0,52,53
 416.748 641.368 416.748 641.368 413.875 641.312 c 0,54,55
 287.342 638.905 287.342 638.905 196.98 558.498 c 128,-1,56
 106.618 478.091 106.618 478.091 102.969 355.312 c 0,57,58
 99.2432 229.988 99.2432 229.988 187.37 141.833 c 128,-1,59
 275.496 53.6768 275.496 53.6768 407.531 53.3447 c 1,60,-1
 407.531 33.3447 l 1,61,62
 315.591 33.5645 315.591 33.5645 239.88 76.9551 c 128,-1,63
 164.168 120.347 164.168 120.347 122.269 194.411 c 128,-1,64
 80.3701 268.477 80.3701 268.477 82.9688 355.906 c 0,65,66
 85.5449 442.578 85.5449 442.578 131.648 512.54 c 128,-1,67
 177.752 582.502 177.752 582.502 252.077 621.078 c 128,-1,68
 326.403 659.655 326.403 659.655 413.5 661.312 c 0,69,70
 416.282 661.364 416.282 661.364 417.906 661.375 c 0,37,38
403.906 617.062 m 2,71,-1
 404.844 617.062 l 1,72,-1
 404.844 596.125 l 1,73,74
 356.369 594.411 356.369 594.411 316.326 579.146 c 128,-1,75
 276.283 563.881 276.283 563.881 228.125 530.188 c 1,76,77
 151.209 462.988 151.209 462.988 147.969 354 c 0,78,79
 144.656 242.558 144.656 242.558 216.812 170.75 c 0,80,81
 289.57 98.3438 289.57 98.3438 408.406 98.3438 c 0,82,83
 517.705 98.3438 517.705 98.3438 594.712 169.483 c 128,-1,84
 671.719 240.623 671.719 240.623 671.719 346.375 c 0,85,86
 671.719 442.188 671.719 442.188 602.714 517.171 c 128,-1,87
 533.708 592.152 533.708 592.152 429.844 596.156 c 1,88,-1
 429.844 616.188 l 1,89,90
 504.344 613.528 504.344 613.528 565.223 574.195 c 128,-1,91
 626.102 534.862 626.102 534.862 658.91 474.274 c 128,-1,92
 691.719 413.687 691.719 413.687 691.719 346.375 c 0,93,94
 691.719 232.48 691.719 232.48 608.492 155.412 c 128,-1,95
 525.267 78.3438 525.267 78.3438 408.406 78.3438 c 0,96,97
 281.316 78.3438 281.316 78.3438 202.719 156.562 c 0,98,99
 124.403 234.672 124.403 234.672 127.969 354.594 c 0,100,101
 131.466 472.295 131.466 472.295 214.969 545.25 c 0,102,103
 253.55 578.178 253.55 578.178 303.045 597.672 c 128,-1,104
 352.54 617.165 352.54 617.165 403.906 617.062 c 2,71,-1
421.562 571.375 m 0,105,106
 513.68 570.667 513.68 570.667 577.035 507.548 c 128,-1,107
 640.39 444.429 640.39 444.429 646.219 360.688 c 1,108,-1
 626.188 360.688 l 1,109,110
 620.34 436.213 620.34 436.213 562.722 493.472 c 128,-1,111
 505.104 550.731 505.104 550.731 421.406 551.375 c 0,112,113
 418.424 551.397 418.424 551.397 415.594 551.344 c 0,114,115
 318.635 549.498 318.635 549.498 257.114 495.749 c 128,-1,116
 195.593 441.999 195.593 441.999 192.938 352.656 c 0,117,118
 190.204 260.71 190.204 260.71 249.173 202.027 c 128,-1,119
 308.142 143.344 308.142 143.344 408.406 143.344 c 0,120,121
 498.722 143.344 498.722 143.344 560.525 197.376 c 128,-1,122
 622.329 251.408 622.329 251.408 626.438 335.688 c 1,123,-1
 646.469 335.688 l 1,124,125
 642.256 243.568 642.256 243.568 574.041 183.456 c 128,-1,126
 505.826 123.344 505.826 123.344 408.406 123.344 c 0,127,128
 299.878 123.344 299.878 123.344 234.438 188.469 c 0,129,130
 169.947 252.647 169.947 252.647 172.938 353.25 c 0,131,132
 175.851 451.283 175.851 451.283 244.594 511.344 c 0,133,134
 275.546 537.6 275.546 537.6 324.905 554.337 c 128,-1,135
 374.264 571.074 374.264 571.074 421.562 571.375 c 0,105,106
EndSplineSet
Validated: 33
Position2: "'cpsp' Capital Spacing in Latin lookup 0 subtable" dx=7 dy=0 dh=14 dv=0
EndChar

StartChar: P
Encoding: 80 80 14
Width: 666
Flags: W
LayerCount: 2
Fore
SplineSet
62 693.906 m 1,0,-1
 362.781 693.906 l 2,1,2
 470.906 693.906 470.906 693.906 541.562 648.219 c 0,3,4
 587.894 618.261 587.894 618.261 616.436 563.053 c 128,-1,5
 644.977 507.846 644.977 507.846 644.5 440.281 c 0,6,7
 644.03 373.658 644.03 373.658 609.559 320.586 c 128,-1,8
 575.086 267.514 575.086 267.514 525.281 239.656 c 0,9,10
 448.274 196.585 448.274 196.585 357.656 199.25 c 1,11,-1
 217 199.812 l 1,12,-1
 217 0 l 1,13,-1
 107 0 l 1,14,-1
 107 648.906 l 1,15,-1
 362.781 648.906 l 2,16,17
 457.633 648.906 457.633 648.906 517.125 610.438 c 0,18,19
 553.11 587.168 553.11 587.168 576.504 542.014 c 128,-1,20
 599.897 496.859 599.897 496.859 599.5 440.594 c 0,21,22
 599.123 387.053 599.123 387.053 570.948 344.03 c 128,-1,23
 542.773 301.009 542.773 301.009 503.312 278.938 c 0,24,25
 437.127 241.92 437.127 241.92 358.969 244.219 c 1,26,-1
 172 244.5 l 1,27,-1
 172 45 l 1,28,-1
 167.851 45 l 1,29,-1
 163.6 45 l 1,30,-1
 159.212 45 l 1,31,-1
 152 45 l 1,32,-1
 152 264.375 l 1,33,34
 285.617 265.614 285.617 265.614 359.562 264.219 c 0,35,36
 432.196 262.083 432.196 262.083 493.562 296.406 c 0,37,38
 528.311 315.842 528.311 315.842 553.738 354.508 c 128,-1,39
 579.165 393.174 579.165 393.174 579.5 440.75 c 0,40,41
 579.861 491.901 579.861 491.901 558.687 532.672 c 128,-1,42
 537.512 573.442 537.512 573.442 506.25 593.656 c 0,43,44
 451.736 628.906 451.736 628.906 362.781 628.906 c 2,45,-1
 127 628.906 l 1,46,-1
 127 20 l 1,47,-1
 197 20 l 1,48,-1
 197 219.688 l 1,49,50
 300.147 220.342 300.147 220.342 358.25 219.25 c 0,51,52
 443.342 216.748 443.342 216.748 515.531 257.125 c 0,53,54
 560.734 282.408 560.734 282.408 592.403 331.018 c 128,-1,55
 624.071 379.627 624.071 379.627 624.5 440.438 c 0,56,57
 624.94 502.982 624.94 502.982 598.695 553.719 c 128,-1,58
 572.449 604.454 572.449 604.454 530.719 631.438 c 0,59,60
 465.039 673.906 465.039 673.906 362.781 673.906 c 2,61,-1
 82 673.906 l 1,62,-1
 81.875 0 l 1,63,-1
 62 0 l 1,64,-1
 62 693.906 l 1,0,-1
152 603.906 m 1,65,-1
 172 603.906 l 1,66,-1
 172 309.562 l 1,67,-1
 217.312 309.875 l 2,68,69
 322.966 310.334 322.966 310.334 360.906 309.219 c 0,70,71
 421.13 307.448 421.13 307.448 471.562 335.656 c 0,72,73
 502.885 353.177 502.885 353.177 516.469 372.969 c 0,74,75
 534.202 398.809 534.202 398.809 534.5 441.062 c 0,76,77
 534.831 488.014 534.831 488.014 521.281 514.812 c 0,78,79
 509.615 537.885 509.615 537.885 481.844 555.844 c 0,80,81
 438.444 583.906 438.444 583.906 362.781 583.906 c 2,82,-1
 197 583.906 l 1,83,-1
 197 603.906 l 1,84,-1
 362.781 603.906 l 2,85,86
 444.341 603.906 444.341 603.906 492.719 572.625 c 0,87,88
 525.022 551.736 525.022 551.736 539.125 523.844 c 0,89,90
 554.865 492.714 554.865 492.714 554.5 440.906 c 0,91,92
 554.159 392.532 554.159 392.532 532.969 361.656 c 0,93,94
 516.732 338 516.732 338 481.312 318.188 c 0,95,96
 426.061 287.285 426.061 287.285 360.312 289.219 c 1,97,-1
 217.469 289.875 l 1,98,-1
 152 289.438 l 1,99,-1
 152 603.906 l 1,65,-1
197 558.906 m 1,100,-1
 217 558.906 l 1,101,-1
 362.781 558.906 l 2,102,103
 431.066 558.906 431.066 558.906 468.281 534.844 c 0,104,105
 490.352 520.573 490.352 520.573 498.969 503.531 c 0,106,107
 509.789 482.132 509.789 482.132 509.5 441.219 c 0,108,109
 509.257 406.638 509.257 406.638 495.844 387.094 c 0,110,111
 485.584 372.145 485.584 372.145 459.344 357.469 c 0,112,113
 414.916 332.62 414.916 332.62 361.625 334.188 c 1,114,-1
 242.406 335 l 1,115,-1
 242.406 355 l 1,116,117
 329.551 355.148 329.551 355.148 362.219 354.188 c 0,118,119
 378.666 353.704 378.666 353.704 405.061 359.248 c 128,-1,120
 431.455 364.792 431.455 364.792 449.594 374.938 c 0,121,122
 471.757 387.334 471.757 387.334 480.528 400.114 c 128,-1,123
 489.3 412.895 489.3 412.895 489.5 441.375 c 0,124,125
 489.754 477.418 489.754 477.418 482.344 492.073 c 128,-1,126
 474.934 506.729 474.934 506.729 457.406 518.062 c 0,127,128
 425.173 538.906 425.173 538.906 362.781 538.906 c 2,129,-1
 217 538.906 l 1,130,-1
 217 354.875 l 1,131,-1
 217.156 334.875 l 1,132,-1
 197 334.719 l 1,133,-1
 197 354.875 l 1,134,-1
 197 538.906 l 1,135,-1
 197 558.906 l 1,100,-1
EndSplineSet
Validated: 33
Position2: "'cpsp' Capital Spacing in Latin lookup 0 subtable" dx=7 dy=0 dh=14 dv=0
EndChar

StartChar: Q
Encoding: 81 81 15
Width: 827
Flags: W
LayerCount: 2
Fore
SplineSet
417.75 706.031 m 0,0,1
 519.442 706.631 519.442 706.631 604.058 655.664 c 128,-1,2
 688.672 604.697 688.672 604.697 735.258 522.077 c 128,-1,3
 781.843 439.458 781.843 439.458 781.843 346.031 c 0,4,5
 781.843 241.546 781.843 241.546 724.624 154.875 c 1,6,-1
 797.624 90.625 l 1,7,-1
 695.187 -25.7188 l 1,8,-1
 613.093 46.5625 l 1,9,10
 519.599 -12 519.599 -12 408.53 -12 c 0,11,12
 307.36 -12 307.36 -12 222.452 35.3301 c 128,-1,13
 137.544 82.6602 137.544 82.6602 88.3691 163.925 c 128,-1,14
 39.1953 245.19 39.1953 245.19 37.999 341.75 c 1,15,-1
 58.0303 341.75 l 1,16,17
 59.21 250.51 59.21 250.51 105.541 173.894 c 128,-1,18
 151.873 97.2783 151.873 97.2783 232.165 52.6396 c 128,-1,19
 312.457 8 312.457 8 408.53 8 c 0,20,21
 513.862 8 513.862 8 602.468 63.5 c 2,22,-1
 615.124 71.4375 l 1,23,-1
 626.312 61.5625 l 1,24,-1
 693.405 2.5 l 1,25,-1
 711.218 22.7188 l 1,26,-1
 692.437 39.2812 l 1,27,-1
 691.155 37.8125 l 1,28,-1
 642.843 80.3438 l 1,29,-1
 617.655 102.5 l 1,30,-1
 589.218 84.6875 l 2,31,32
 512.062 36.3594 512.062 36.3594 420.28 33.2188 c 1,33,-1
 420.28 53.2188 l 1,34,35
 506.307 56.3467 506.307 56.3467 578.593 101.625 c 2,36,-1
 600.939 115.36 l 1,37,-1
 582.152 131.539 l 1,38,-1
 573.874 126.219 l 2,39,40
 545.869 107.411 545.869 107.411 509.843 94.4062 c 0,41,42
 461.741 78 461.741 78 408.53 78 c 0,43,44
 281.442 78 281.442 78 202.843 156.219 c 0,45,46
 124.523 234.157 124.523 234.157 128.093 354.25 c 0,47,48
 131.591 471.938 131.591 471.938 215.124 544.906 c 0,49,50
 244.625 570.078 244.625 570.078 291.382 591.156 c 128,-1,51
 338.14 612.232 338.14 612.232 376.718 616.375 c 0,52,53
 379.163 616.561 379.163 616.561 395.28 617.173 c 1,54,-1
 395.28 595.344 l 1,55,56
 350.478 592.499 350.478 592.499 312.309 577.212 c 128,-1,57
 274.14 561.925 274.14 561.925 228.28 529.844 c 1,58,59
 151.331 462.625 151.331 462.625 148.094 353.656 c 0,60,61
 144.781 242.213 144.781 242.213 216.937 170.406 c 0,62,63
 289.697 98 289.697 98 408.53 98 c 0,64,65
 462.748 98 462.748 98 503.374 113.344 c 0,66,67
 536.96 126.027 536.96 126.027 563.811 148.513 c 1,68,-1
 518.594 189.719 l 1,69,-1
 429.335 268.35 l 1,70,-1
 412.343 249.906 l 1,71,-1
 502.062 170.938 l 1,72,-1
 521.559 153.455 l 1,73,74
 506.546 139.393 506.546 139.393 485.055 133.66 c 0,75,76
 447.12 123 447.12 123 408.53 123 c 0,77,78
 300.004 123 300.004 123 234.562 188.125 c 0,79,80
 170.071 252.303 170.071 252.303 173.062 352.906 c 0,81,82
 175.977 450.952 175.977 450.952 244.718 511 c 0,83,84
 305.977 564.51 305.977 564.51 401.562 570.219 c 0,85,86
 405.693 570.41 405.693 570.41 410.491 570.502 c 128,-1,87
 415.289 570.594 415.289 570.594 417.846 570.685 c 128,-1,88
 420.402 570.774 420.402 570.774 421.718 571.031 c 0,89,90
 518.058 570.291 518.058 570.291 582.45 501.892 c 128,-1,91
 646.843 433.492 646.843 433.492 646.843 346.031 c 0,92,93
 646.843 294.201 646.843 294.201 625.28 249.5 c 2,94,-1
 613.843 225.75 l 1,95,-1
 594.062 243.188 l 1,96,-1
 488.343 336.25 l 1,97,-1
 471.77 317.395 l 1,98,-1
 577.53 224.406 l 1,99,-1
 616.655 189.281 l 1,100,101
 622.65 196.625 622.65 196.625 627.811 204.741 c 128,-1,102
 632.971 212.857 632.971 212.857 638.788 223.164 c 128,-1,103
 644.605 233.471 644.605 233.471 647.812 238.625 c 0,104,105
 671.843 288.443 671.843 288.443 671.843 346.031 c 0,106,107
 671.843 409.155 671.843 409.155 640.599 465.979 c 128,-1,108
 609.355 522.802 609.355 522.802 551.128 559.144 c 128,-1,109
 492.899 595.485 492.899 595.485 421.905 596.031 c 2,110,-1
 420.28 596.031 l 1,111,-1
 420.28 616.746 l 1,112,-1
 422.062 616.746 l 2,113,114
 498.476 616.159 498.476 616.159 561.3 576.931 c 128,-1,115
 624.123 537.702 624.123 537.702 657.983 476.131 c 128,-1,116
 691.843 414.56 691.843 414.56 691.843 346.031 c 0,117,118
 691.429 296.585 691.429 296.585 672.873 246.705 c 128,-1,119
 654.317 196.825 654.317 196.825 620.193 159.531 c 1,120,-1
 603.437 174.281 l 1,121,-1
 564.312 209.406 l 1,122,-1
 443.591 316.036 l 1,123,-1
 486.562 364.469 l 1,124,-1
 607.281 258.188 l 1,125,126
 626.844 298.741 626.844 298.741 626.844 346.031 c 0,127,128
 626.844 425.174 626.844 425.174 568.18 487.765 c 128,-1,129
 509.515 550.355 509.515 550.355 421.562 551.031 c 0,130,131
 418.637 551.055 418.637 551.055 415.75 551 c 0,132,133
 318.788 549.154 318.788 549.154 257.253 495.403 c 128,-1,134
 195.718 441.652 195.718 441.652 193.062 352.312 c 0,135,136
 190.329 260.366 190.329 260.366 249.298 201.683 c 128,-1,137
 308.267 143 308.267 143 408.531 143 c 0,138,139
 450.91 143 450.91 143 488.844 155.938 c 1,140,-1
 384.125 248.125 l 1,141,-1
 427.06 296.81 l 1,142,-1
 531.812 204.719 l 1,143,-1
 580.625 160.156 l 1,144,-1
 630.875 117.531 l 1,145,-1
 656.062 95.375 l 1,146,-1
 681.5 72.9375 l 1,147,-1
 723.188 36.25 l 1,148,-1
 731.031 45.2188 l 1,149,-1
 769.406 88.8438 l 1,150,-1
 711.406 139.875 l 1,151,-1
 698.344 151.375 l 1,152,-1
 707.938 165.906 l 2,153,154
 761.844 247.56 761.844 247.56 761.844 346.031 c 0,155,156
 761.844 434.042 761.844 434.042 717.947 512.043 c 128,-1,157
 674.05 590.044 674.05 590.044 594.078 638.321 c 128,-1,158
 514.107 686.599 514.107 686.599 417.875 686.031 c 0,159,160
 416.101 686.023 416.101 686.023 413.156 685.969 c 0,161,162
 321.857 684.231 321.857 684.231 243.102 643.945 c 128,-1,163
 164.346 603.659 164.346 603.659 114.194 530.579 c 128,-1,164
 64.043 457.5 64.043 457.5 58.5938 366.75 c 1,165,-1
 38.5625 366.75 l 1,166,167
 44.0244 463.003 44.0244 463.003 97.0762 540.722 c 128,-1,168
 150.128 618.439 150.128 618.439 233.371 661.289 c 128,-1,169
 316.613 704.139 316.613 704.139 412.781 705.969 c 0,170,171
 415.909 706.021 415.909 706.021 417.75 706.031 c 0,0,1
418.031 661.031 m 0,172,173
 507.438 661.559 507.438 661.559 581.604 616.643 c 128,-1,174
 655.771 571.727 655.771 571.727 696.308 499.5 c 128,-1,175
 736.844 427.272 736.844 427.272 736.844 346.031 c 0,176,177
 736.844 255.062 736.844 255.062 687.062 179.656 c 2,178,-1
 665.5 146.969 l 1,179,-1
 694.906 121.094 l 1,180,-1
 734.094 86.5938 l 1,181,-1
 720.781 71.5 l 1,182,-1
 705.719 84.625 l 1,183,-1
 681.688 106.094 l 1,184,-1
 652.281 131.969 l 1,185,-1
 637.787 144.631 l 1,186,-1
 648.812 157.969 l 1,187,-1
 670.375 190.656 l 2,188,189
 716.844 261.075 716.844 261.075 716.844 346.031 c 0,190,191
 716.844 421.85 716.844 421.85 678.989 489.459 c 128,-1,192
 641.136 557.068 641.136 557.068 571.612 599.298 c 128,-1,193
 502.09 641.526 502.09 641.526 418.156 641.031 c 0,194,195
 416.942 641.025 416.942 641.025 414 640.969 c 0,196,197
 287.458 638.561 287.458 638.561 197.101 558.169 c 128,-1,198
 106.743 477.776 106.743 477.776 103.094 355 c 0,199,200
 99.4629 232.848 99.4629 232.848 183.567 145.517 c 128,-1,201
 267.672 58.1855 267.672 58.1855 395.281 53.2812 c 1,202,-1
 395.281 33.25 l 1,203,204
 259.736 38.2197 259.736 38.2197 169.479 131.757 c 128,-1,205
 79.2207 225.294 79.2207 225.294 83.0938 355.594 c 0,206,207
 85.6699 442.266 85.6699 442.266 131.772 512.219 c 128,-1,208
 177.876 582.173 177.876 582.173 252.2 620.742 c 128,-1,209
 326.524 659.312 326.524 659.312 413.625 660.969 c 0,210,211
 416.759 661.022 416.759 661.022 418.031 661.031 c 0,172,173
EndSplineSet
Validated: 33
Position2: "'cpsp' Capital Spacing in Latin lookup 0 subtable" dx=7 dy=0 dh=14 dv=0
EndChar

StartChar: R
Encoding: 82 82 16
Width: 695
Flags: W
LayerCount: 2
Fore
SplineSet
62 693.75 m 1,0,-1
 362.781 693.75 l 2,1,2
 477.589 693.75 477.589 693.75 546.188 662.406 c 0,3,4
 599.892 637.868 599.892 637.868 637.219 582.188 c 128,-1,5
 674.546 526.508 674.546 526.508 675.031 455.531 c 0,6,7
 675.522 383.696 675.522 383.696 635.785 327.854 c 128,-1,8
 596.049 272.012 596.049 272.012 539.312 242.375 c 0,9,10
 532.423 238.775 532.423 238.775 524.594 235.094 c 1,11,-1
 681.719 0 l 1,12,-1
 495.281 0 l 1,13,-1
 362.281 199 l 1,14,-1
 217 199.625 l 1,15,-1
 217 0 l 1,16,-1
 107 0 l 1,17,-1
 107 648.75 l 1,18,-1
 362.781 648.75 l 2,19,20
 467.793 648.75 467.793 648.75 527.5 621.469 c 0,21,22
 568.836 602.581 568.836 602.581 599.238 557.559 c 128,-1,23
 629.64 512.536 629.64 512.536 630.031 455.219 c 0,24,25
 630.427 397.479 630.427 397.479 597.711 352.017 c 128,-1,26
 564.995 306.553 564.995 306.553 518.469 282.25 c 0,27,28
 512.514 279.139 512.514 279.139 505.438 275.812 c 2,29,-1
 482.781 265.156 l 1,30,-1
 472.219 282.281 l 1,31,-1
 496.938 293.906 l 2,32,33
 503.719 297.096 503.719 297.096 509.219 299.969 c 0,34,35
 551.177 321.886 551.177 321.886 580.779 362.812 c 128,-1,36
 610.383 403.738 610.383 403.738 610.031 455.094 c 0,37,38
 609.683 506.142 609.683 506.142 582.242 546.574 c 128,-1,39
 554.802 587.008 554.802 587.008 519.188 603.281 c 0,40,41
 463.447 628.75 463.447 628.75 362.781 628.75 c 2,42,-1
 127 628.75 l 1,43,-1
 127 20 l 1,44,-1
 197 20 l 1,45,-1
 197 219.5 l 1,46,47
 310.508 219.791 310.508 219.791 373.062 218.844 c 1,48,-1
 378.906 210.125 l 1,49,-1
 505.969 20 l 1,50,-1
 534.719 20 l 1,51,-1
 399.688 224 l 1,52,-1
 386.562 243.656 l 1,53,-1
 172 244.312 l 1,54,-1
 172 45 l 1,55,-1
 152 45 l 1,56,-1
 152 264.188 l 2,57,58
 151.9 264.2 151.9 264.2 213.265 264.106 c 128,-1,59
 274.628 264.013 274.628 264.013 336.042 263.912 c 2,60,-1
 397.455 263.812 l 1,61,-1
 416.312 235.094 l 1,62,-1
 560.625 20 l 1,63,-1
 644.281 20 l 1,64,-1
 507.969 223.969 l 1,65,-1
 495.062 243.312 l 1,66,-1
 516.094 253.188 l 2,67,68
 523.578 256.707 523.578 256.707 530.062 260.094 c 0,69,70
 582.255 287.355 582.255 287.355 618.867 338.595 c 128,-1,71
 655.48 389.833 655.48 389.833 655.031 455.406 c 0,72,73
 654.588 520.31 654.588 520.31 620.336 571.25 c 128,-1,74
 586.084 622.191 586.084 622.191 537.875 644.219 c 0,75,76
 473.242 673.75 473.242 673.75 362.781 673.75 c 2,77,-1
 82 673.75 l 1,78,-1
 82 0 l 1,79,-1
 62 0 l 1,80,-1
 62 693.75 l 1,0,-1
152 603.75 m 1,81,-1
 172 603.75 l 1,82,-1
 172 309.406 l 1,83,84
 293.044 310.399 293.044 310.399 360.906 309.062 c 0,85,86
 382.016 308.441 382.016 308.441 416.719 315.719 c 0,87,88
 459.066 324.598 459.066 324.598 488.375 339.906 c 0,89,90
 526.062 359.593 526.062 359.593 542.844 381.281 c 0,91,92
 565.337 410.354 565.337 410.354 565.031 454.781 c 0,93,94
 564.698 503.628 564.698 503.628 548.125 527.719 c 0,95,96
 535.202 546.503 535.202 546.503 500.469 562.375 c 0,97,98
 453.688 583.75 453.688 583.75 362.781 583.75 c 2,99,-1
 197 583.75 l 1,100,-1
 197 603.75 l 1,101,-1
 362.781 603.75 l 2,102,103
 458.033 603.75 458.033 603.75 508.781 580.562 c 0,104,105
 548.54 562.397 548.54 562.397 564.594 539.062 c 0,106,107
 584.654 509.903 584.654 509.903 585.031 454.906 c 0,108,109
 585.383 403.573 585.383 403.573 558.656 369.031 c 0,110,111
 539.225 343.917 539.225 343.917 497.625 322.188 c 0,112,113
 486.31 316.084 486.31 316.084 469.672 309.973 c 128,-1,114
 453.034 303.862 453.034 303.862 442.208 300.74 c 128,-1,115
 431.382 297.617 431.382 297.617 429.969 297.562 c 1,116,-1
 487.188 210.094 l 1,117,-1
 597.531 45 l 1,118,-1
 570.75 45 l 1,119,-1
 558.531 65 l 1,120,-1
 560.094 65 l 1,121,-1
 470.562 198.969 l 1,122,-1
 441.5 242.438 l 2,123,124
 421.522 272.379 421.522 272.379 409.562 292.594 c 1,125,126
 382.799 289.125 382.799 289.125 366.168 289.15 c 0,127,128
 165.19 289.473 165.19 289.473 152 289.281 c 1,129,-1
 152 603.75 l 1,81,-1
197 558.75 m 1,130,-1
 362.78 558.75 l 2,131,132
 448.237 558.75 448.237 558.75 490.094 539.625 c 0,133,134
 518.544 526.626 518.544 526.626 527.53 513.562 c 0,135,136
 539.75 495.802 539.75 495.802 540.03 454.594 c 0,137,138
 540.275 418.842 540.275 418.842 523.062 396.594 c 0,139,140
 509.615 379.213 509.615 379.213 476.78 362.062 c 0,141,142
 450.534 348.353 450.534 348.353 411.594 340.188 c 0,143,144
 379.701 333.5 379.701 333.5 361.625 334.031 c 2,145,-1
 241.937 334.844 l 1,146,-1
 241.937 354.844 l 1,147,148
 329.428 354.996 329.428 354.996 362.219 354.031 c 0,149,150
 378.005 353.566 378.005 353.566 410.868 360.458 c 128,-1,151
 443.73 367.35 443.73 367.35 467.53 379.781 c 0,152,153
 496.481 394.904 496.481 394.904 508.355 410.25 c 128,-1,154
 520.229 425.596 520.229 425.596 520.03 454.469 c 0,155,156
 519.791 489.533 519.791 489.533 512.498 500.134 c 128,-1,157
 505.205 510.734 505.205 510.734 481.78 521.438 c 0,158,159
 443.893 538.75 443.893 538.75 362.78 538.75 c 2,160,-1
 216.999 538.75 l 1,161,-1
 216.999 368.375 l 1,162,-1
 216.938 334.719 l 1,163,-1
 197 334.562 l 1,164,-1
 197 558.75 l 1,130,-1
EndSplineSet
Validated: 33
Position2: "'cpsp' Capital Spacing in Latin lookup 0 subtable" dx=7 dy=0 dh=14 dv=0
EndChar

StartChar: S
Encoding: 83 83 17
Width: 646
Flags: W
LayerCount: 2
Fore
SplineSet
322.595 705.375 m 0,0,1
 473.623 706.235 473.623 706.235 597.095 605.969 c 1,2,-1
 584.656 590.736 l 1,3,4
 574.642 597.854 574.642 597.854 568.595 602.594 c 0,5,6
 456.573 686.138 456.573 686.138 322.72 685.375 c 0,7,8
 224.442 684.815 224.442 684.815 153.782 640.594 c 0,9,10
 115.352 616.542 115.352 616.542 90.2549 576.537 c 128,-1,11
 65.1572 536.532 65.1572 536.532 65.1572 490.469 c 0,12,13
 65.1572 447.021 65.1572 447.021 85.9873 406.886 c 128,-1,14
 106.818 366.751 106.818 366.751 141.032 342.875 c 0,15,16
 204.11 298.856 204.11 298.856 312.657 293.688 c 0,17,18
 400.308 289.514 400.308 289.514 444.97 265.812 c 0,19,20
 466.878 254.187 466.878 254.187 472.376 246.875 c 128,-1,21
 477.743 239.738 477.743 239.738 478.938 229.844 c 0,22,23
 479.521 225.027 479.521 225.027 479.313 214.906 c 0,24,25
 478.828 191.15 478.828 191.15 470.751 176.594 c 0,26,27
 463.248 163.074 463.248 163.074 444.97 150.531 c 0,28,29
 404.772 122.949 404.772 122.949 333.657 124.281 c 0,30,31
 267.013 125.53 267.013 125.53 188.376 159.156 c 0,32,33
 161.823 170.511 161.823 170.511 130.501 190.344 c 2,34,-1
 124.532 194.219 l 1,35,-1
 71.3115 144.443 l 1,36,37
 86.9434 131.5 86.9434 131.5 118.47 114.125 c 0,38,39
 135.719 105.507 135.719 105.507 160.876 94.75 c 0,40,41
 251.918 55.8184 251.918 55.8184 332.345 54.3125 c 0,42,43
 425.901 52.5596 425.901 52.5596 484.563 92.8125 c 0,44,45
 508.918 109.524 508.918 109.524 526.104 137.249 c 128,-1,46
 543.288 164.974 543.288 164.974 547.845 196.344 c 1,47,-1
 568.032 196.344 l 1,48,49
 563.474 159.839 563.474 159.839 544.001 127.906 c 128,-1,50
 524.528 95.9727 524.528 95.9727 495.876 76.3125 c 0,51,52
 431.938 32.4395 431.938 32.4395 331.97 34.3125 c 0,53,54
 247.677 35.8916 247.677 35.8916 153.001 76.375 c 0,55,56
 101.12 98.5596 101.12 98.5596 76.5635 114.719 c 1,57,58
 50.5811 133.403 50.5811 133.403 41.3115 143.217 c 1,59,-1
 121.845 219.156 l 1,60,-1
 128.741 215.329 l 1,61,62
 167.671 189.752 167.671 189.752 196.251 177.531 c 0,63,64
 271.26 145.456 271.26 145.456 334.032 144.281 c 0,65,66
 398.735 143.069 398.735 143.069 433.657 167.031 c 0,67,68
 448.057 176.912 448.057 176.912 453.493 186.708 c 128,-1,69
 458.93 196.505 458.93 196.505 459.313 215.312 c 0,70,71
 459.625 230.576 459.625 230.576 456.604 234.593 c 128,-1,72
 453.583 238.61 453.583 238.61 435.595 248.156 c 0,73,74
 394.886 269.759 394.886 269.759 311.72 273.719 c 0,75,76
 197.383 279.162 197.383 279.162 129.595 326.469 c 0,77,78
 91.0957 353.335 91.0957 353.335 68.126 397.6 c 128,-1,79
 45.1572 441.863 45.1572 441.863 45.1572 490.469 c 0,80,81
 45.1572 542.315 45.1572 542.315 72.8555 586.607 c 128,-1,82
 100.553 630.899 100.553 630.899 143.157 657.562 c 0,83,84
 218.607 704.782 218.607 704.782 322.595 705.375 c 0,0,1
322.845 660.375 m 0,85,86
 430.749 660.989 430.749 660.989 523.781 603.094 c 0,87,88
 537.312 594.771 537.312 594.771 569.243 571.836 c 1,89,-1
 499.375 485.625 l 1,90,91
 461.089 516.715 461.089 516.715 420.471 533.705 c 128,-1,92
 379.854 550.695 379.854 550.695 323.469 550.375 c 0,93,94
 263.559 550.032 263.559 550.032 225.406 526.155 c 0,95,96
 209.878 516.438 209.878 516.438 205.018 509.315 c 128,-1,97
 200.156 502.193 200.156 502.193 200.156 490.469 c 0,98,99
 200.156 474.012 200.156 474.012 203.3 467.944 c 128,-1,100
 206.443 461.876 206.443 461.876 218.312 453.594 c 0,101,102
 249.428 431.879 249.428 431.879 319.094 428.562 c 0,103,104
 436.906 422.952 436.906 422.952 508.25 385.094 c 0,105,106
 554.084 360.771 554.084 360.771 584.74 313.754 c 128,-1,107
 615.396 266.738 615.396 266.738 614.281 212.155 c 0,108,109
 613.211 159.754 613.211 159.754 587.912 113.646 c 128,-1,110
 562.614 67.5371 562.614 67.5371 521.344 39.2188 c 0,111,112
 445.49 -12.8311 445.49 -12.8311 331.125 -10.6875 c 0,113,114
 238.079 -8.94434 238.079 -8.94434 135.312 35 c 0,115,116
 88.8027 54.8877 88.8027 54.8877 60.3965 71.6895 c 128,-1,117
 31.9902 88.4902 31.9902 88.4902 9 112.905 c 1,118,-1
 23.4746 126.443 l 1,119,120
 33.6514 116.176 33.6514 116.176 38.0312 112.75 c 0,121,122
 69.8691 84.7266 69.8691 84.7266 143.188 53.375 c 0,123,124
 242.323 10.9824 242.323 10.9824 331.5 9.3125 c 0,125,126
 439.453 7.28906 439.453 7.28906 510.031 55.7188 c 0,127,128
 547.21 81.2295 547.21 81.2295 570.262 123.217 c 128,-1,129
 593.314 165.204 593.314 165.204 594.281 212.562 c 0,130,131
 595.265 260.739 595.265 260.739 567.451 303.272 c 128,-1,132
 539.638 345.806 539.638 345.806 498.875 367.437 c 0,133,134
 431.49 403.195 431.49 403.195 318.156 408.594 c 0,135,136
 242.701 412.187 242.701 412.187 206.875 437.187 c 0,137,138
 190.931 448.313 190.931 448.313 185.719 458.374 c 0,139,140
 180.156 469.111 180.156 469.111 180.156 490.469 c 0,141,142
 180.156 508.361 180.156 508.361 188.312 520.312 c 0,143,144
 195.756 531.219 195.756 531.219 214.781 543.125 c 0,145,146
 257.727 570.001 257.727 570.001 323.344 570.375 c 0,147,148
 418.345 570.916 418.345 570.916 496.156 513.375 c 1,149,-1
 540.431 567.768 l 1,150,151
 524.227 579.938 524.227 579.938 490.688 599.094 c 1,152,153
 412.236 640.884 412.236 640.884 322.969 640.375 c 0,154,155
 237.57 639.889 237.57 639.889 177.781 602.531 c 1,156,-1
 177.656 602.438 l 1,157,-1
 177.376 602.281 l 1,158,159
 151.49 585.979 151.49 585.979 133.018 559.269 c 128,-1,160
 114.544 532.559 114.544 532.559 110.938 503.031 c 1,161,-1
 90.751 502.5 l 1,162,163
 94.127 537.905 94.127 537.905 115.225 568.991 c 128,-1,164
 136.323 600.077 136.323 600.077 166.688 619.188 c 0,165,166
 231.665 659.855 231.665 659.855 322.845 660.375 c 0,85,86
323.095 615.375 m 0,167,168
 411.194 615.877 411.194 615.877 486.595 573 c 0,169,170
 495.813 567.583 495.813 567.583 503.407 562 c 1,171,-1
 491.22 546.969 l 1,172,173
 414.565 595.896 414.565 595.896 323.22 595.375 c 0,174,175
 250.504 594.961 250.504 594.961 201.532 564.312 c 0,176,177
 178.031 549.605 178.031 549.605 167.657 534.406 c 0,178,179
 155.157 516.093 155.157 516.093 155.157 490.469 c 0,180,181
 155.157 463.042 155.157 463.042 163.532 446.875 c 0,182,183
 171.588 431.326 171.588 431.326 192.563 416.688 c 0,184,185
 234.3 387.562 234.3 387.562 316.97 383.625 c 0,186,187
 424.686 378.495 424.686 378.495 487.157 345.344 c 0,188,189
 519.67 328.091 519.67 328.091 543.445 293.772 c 128,-1,190
 567.222 259.454 567.222 259.454 569.157 221.344 c 1,191,-1
 549.095 221.344 l 1,192,193
 546.973 252.979 546.973 252.979 525.914 283.149 c 128,-1,194
 504.856 313.32 504.856 313.32 477.782 327.688 c 0,195,196
 419.265 358.741 419.265 358.741 316.032 363.656 c 0,197,198
 227.571 367.869 227.571 367.869 181.126 400.281 c 0,199,200
 156.121 417.729 156.121 417.729 145.782 437.688 c 0,201,202
 135.157 458.198 135.157 458.198 135.157 490.469 c 0,203,204
 135.157 522.29 135.157 522.29 151.126 545.688 c 0,205,206
 163.871 564.361 163.871 564.361 190.907 581.281 c 0,207,208
 244.669 614.928 244.669 614.928 323.095 615.375 c 0,167,168
110.845 478.031 m 1,209,210
 113.954 449.138 113.954 449.138 129.478 422.06 c 128,-1,211
 145 394.981 145 394.981 166.782 379.781 c 0,212,213
 219.238 343.175 219.238 343.175 314.813 338.625 c 0,214,215
 412.53 333.971 412.53 333.971 466.063 305.562 c 0,216,217
 466.114 305.536 466.114 305.536 473.417 302.005 c 128,-1,218
 480.721 298.474 480.721 298.474 484.611 296.09 c 128,-1,219
 488.502 293.706 488.502 293.706 495.595 287.604 c 128,-1,220
 502.688 281.501 502.688 281.501 508.376 273.938 c 0,221,222
 520.938 257.233 520.938 257.233 523.595 235.25 c 0,223,224
 524.581 227.09 524.581 227.09 524.313 214 c 0,225,226
 523.602 179.058 523.602 179.058 510.095 154.719 c 0,227,228
 497.484 131.995 497.484 131.995 470.438 113.438 c 0,229,230
 418.325 77.6797 418.325 77.6797 332.813 79.2812 c 0,231,232
 257.419 80.6943 257.419 80.6943 170.688 117.781 c 0,233,234
 152.75 125.515 152.75 125.515 112.206 148.205 c 1,235,-1
 127.595 162.781 l 1,236,237
 154.532 146.432 154.532 146.432 178.563 136.156 c 0,238,239
 261.668 100.621 261.668 100.621 333.188 99.2812 c 0,240,241
 412.288 97.7998 412.288 97.7998 459.126 129.938 c 0,242,243
 482.256 145.809 482.256 145.809 492.595 164.438 c 0,244,245
 503.703 184.453 503.703 184.453 504.313 214.406 c 0,246,247
 504.555 226.193 504.555 226.193 503.751 232.844 c 0,248,249
 501.744 249.446 501.744 249.446 492.376 261.906 c 0,250,251
 487.545 268.33 487.545 268.33 482.303 272.944 c 128,-1,252
 477.06 277.56 477.06 277.56 473.955 279.373 c 128,-1,253
 470.851 281.187 470.851 281.187 464.836 283.98 c 128,-1,254
 458.822 286.774 458.822 286.774 456.688 287.906 c 0,255,256
 407.11 314.216 407.11 314.216 313.876 318.656 c 0,257,258
 212.507 323.484 212.507 323.484 155.345 363.375 c 0,259,260
 129.122 381.674 129.122 381.674 111.499 412.617 c 128,-1,261
 93.877 443.56 93.877 443.56 90.751 477.469 c 1,262,-1
 110.845 478.031 l 1,209,210
EndSplineSet
Validated: 33
Position2: "'cpsp' Capital Spacing in Latin lookup 0 subtable" dx=7 dy=0 dh=14 dv=0
EndChar

StartChar: T
Encoding: 84 84 18
Width: 655
Flags: W
LayerCount: 2
Fore
SplineSet
23 692 m 1,0,-1
 631.75 692 l 1,1,-1
 631.75 537 l 1,2,-1
 405.844 537 l 1,3,-1
 405.844 0 l 1,4,-1
 385.844 0 l 1,5,-1
 385.844 557 l 1,6,-1
 611.75 557 l 1,7,-1
 611.75 582 l 1,8,-1
 315.844 582 l 1,9,-1
 315.844 45 l 1,10,-1
 295.844 45 l 1,11,-1
 295.844 582 l 1,12,-1
 68 582 l 1,13,-1
 68 602 l 1,14,-1
 611.75 602 l 1,15,-1
 611.75 672 l 1,16,-1
 23 672 l 1,17,-1
 23 692 l 1,0,-1
23 537 m 1,18,-1
 23 647 l 1,19,-1
 586.75 647 l 1,20,-1
 586.75 627 l 1,21,-1
 43 627 l 1,22,-1
 43 557 l 1,23,-1
 270.844 557 l 1,24,-1
 270.844 20 l 1,25,-1
 340.844 20 l 1,26,-1
 340.844 557 l 1,27,-1
 360.844 557 l 1,28,-1
 360.844 0 l 1,29,-1
 250.844 0 l 1,30,-1
 250.844 537 l 1,31,-1
 23 537 l 1,18,-1
EndSplineSet
Validated: 1
Position2: "'cpsp' Capital Spacing in Latin lookup 0 subtable" dx=7 dy=0 dh=14 dv=0
EndChar

StartChar: U
Encoding: 85 85 19
Width: 709
Flags: W
LayerCount: 2
Fore
SplineSet
501.376 694.281 m 1,0,-1
 521.376 694.281 l 1,1,-1
 521.376 285.219 l 1,2,-1
 521.345 284.094 l 1,3,4
 517.666 218.596 517.666 218.596 489.626 181.25 c 0,5,6
 469.023 153.812 469.023 153.812 439.032 140.625 c 0,7,8
 423.305 133.71 423.305 133.71 416.162 131.129 c 128,-1,9
 409.021 128.549 409.021 128.549 393.617 126.201 c 128,-1,10
 378.213 123.854 378.213 123.854 356.22 123.906 c 0,11,12
 319.266 123.996 319.266 123.996 301.217 128.146 c 128,-1,13
 283.167 132.295 283.167 132.295 259.626 142.688 c 0,14,15
 228.255 156.538 228.255 156.538 209.501 184.031 c 0,16,17
 188.103 215.403 188.103 215.403 188.001 271.688 c 0,18,-1
 188.001 271.844 l 1,19,-1
 188.001 673.469 l 1,20,-1
 118.001 673.469 l 1,21,-1
 118.001 271.719 l 1,22,-1
 118.001 271.625 l 1,23,-1
 118.001 271.594 l 2,24,25
 118.117 193.812 118.117 193.812 151.688 144.594 c 0,26,27
 179.142 104.346 179.142 104.346 222.212 80.2939 c 128,-1,28
 265.281 56.2412 265.281 56.2412 343.626 54.0938 c 1,29,-1
 343.626 34.0938 l 1,30,31
 260.963 36.2822 260.963 36.2822 213.237 62.5459 c 128,-1,32
 165.513 88.8105 165.513 88.8105 135.157 133.312 c 0,33,34
 98.127 187.601 98.127 187.601 98.001 271.594 c 2,35,-1
 98.001 271.656 l 1,36,-1
 98.001 693.469 l 1,37,-1
 208.001 693.469 l 1,38,-1
 208.001 271.844 l 2,39,40
 208.092 221.614 208.092 221.614 226.032 195.312 c 0,41,42
 226.453 194.695 226.453 194.695 231.063 187.631 c 128,-1,43
 235.675 180.566 235.675 180.566 236.93 179.258 c 128,-1,44
 238.185 177.95 238.185 177.95 243.354 171.897 c 128,-1,45
 248.525 165.846 248.525 165.846 252.458 164.172 c 128,-1,46
 256.391 162.497 256.391 162.497 263.804 157.987 c 128,-1,47
 271.218 153.478 271.218 153.478 279.513 151.967 c 128,-1,48
 287.807 150.456 287.807 150.456 299.147 148.019 c 128,-1,49
 310.488 145.58 310.488 145.58 324.829 144.764 c 128,-1,50
 339.171 143.947 339.171 143.947 356.282 143.906 c 0,51,52
 370.764 143.871 370.764 143.871 382.845 144.506 c 128,-1,53
 394.926 145.141 394.926 145.141 404.77 147.307 c 128,-1,54
 414.613 149.472 414.613 149.472 421.658 150.741 c 128,-1,55
 428.704 152.012 428.704 152.012 435.526 156.198 c 128,-1,56
 442.35 160.386 442.35 160.386 445.816 161.914 c 128,-1,57
 449.282 163.443 449.282 163.443 454.541 169.275 c 128,-1,58
 459.799 175.107 459.799 175.107 461.143 176.52 c 128,-1,59
 462.487 177.932 462.487 177.932 467.637 185.033 c 128,-1,60
 472.787 192.135 472.787 192.135 473.626 193.25 c 0,61,62
 498.037 225.761 498.037 225.761 501.376 285.219 c 1,63,-1
 501.376 694.281 l 1,0,-1
546.376 694.281 m 1,64,-1
 656.375 694.281 l 1,65,-1
 656.375 282.5 l 1,66,-1
 656.375 280.531 l 1,67,-1
 656.25 278.531 l 1,68,69
 650.731 171.001 650.731 171.001 597.562 100.188 c 0,70,71
 513.724 -11.4756 513.724 -11.4756 355.906 -11.0938 c 0,72,73
 178.889 -10.666 178.889 -10.666 97.9688 107.969 c 0,74,75
 53.1484 173.677 53.1484 173.677 53 271.594 c 2,76,-1
 53 271.655 l 1,77,-1
 53 693.469 l 1,78,-1
 73 693.469 l 1,79,-1
 73 271.719 l 1,80,-1
 73 271.624 l 2,81,82
 73.1357 179.892 73.1357 179.892 114.5 119.25 c 0,83,84
 149.56 67.8506 149.56 67.8506 206.242 38.4912 c 128,-1,85
 262.924 9.13184 262.924 9.13184 355.969 8.90625 c 0,86,87
 438.648 8.70605 438.648 8.70605 491.709 35.9463 c 128,-1,88
 544.77 63.1855 544.77 63.1855 581.562 112.188 c 0,89,90
 631.076 178.133 631.076 178.133 636.281 279.562 c 1,91,-1
 636.281 279.656 l 1,92,-1
 636.375 281.281 l 1,93,-1
 636.375 282.5 l 1,94,-1
 636.375 674.281 l 1,95,-1
 566.375 674.281 l 1,96,-1
 566.375 285.219 l 1,97,-1
 566.375 283.969 l 1,98,-1
 566.375 283.469 l 1,99,-1
 566.282 281.719 l 1,100,-1
 566.282 281.562 l 1,101,102
 561.837 202.446 561.837 202.446 525.626 154.219 c 0,103,104
 497.963 117.379 497.963 117.379 457.157 99.4375 c 0,105,106
 430.454 87.6973 430.454 87.6973 410.831 83.2598 c 128,-1,107
 391.209 78.8213 391.209 78.8213 356.126 78.9062 c 0,108,109
 315.432 79.0049 315.432 79.0049 292.595 84.0244 c 128,-1,110
 269.759 89.043 269.759 89.043 241.47 101.531 c 0,111,112
 198.298 120.591 198.298 120.591 172.313 158.688 c 0,113,114
 143.129 201.473 143.129 201.473 143.001 271.594 c 2,115,-1
 143.001 271.625 l 1,116,-1
 143.001 271.718 l 1,117,-1
 143.001 648.468 l 1,118,-1
 163.001 648.468 l 1,119,-1
 163.001 271.843 l 1,120,-1
 163.001 271.688 l 2,121,122
 163.117 207.687 163.117 207.687 188.845 169.969 c 0,123,124
 211.646 136.538 211.646 136.538 249.532 119.812 c 0,125,126
 275.709 108.256 275.709 108.256 296.418 103.629 c 128,-1,127
 317.127 99.001 317.127 99.001 356.188 98.9062 c 0,128,129
 389.6 98.8262 389.6 98.8262 406.996 102.858 c 128,-1,130
 424.394 106.891 424.394 106.891 449.095 117.75 c 0,131,132
 485.131 133.594 485.131 133.594 509.626 166.219 c 0,133,134
 542.208 209.614 542.208 209.614 546.313 282.688 c 2,135,-1
 546.376 283.969 l 1,136,-1
 546.376 285.219 l 1,137,-1
 546.376 694.281 l 1,64,-1
591.376 649.281 m 1,138,-1
 611.375 649.281 l 1,139,-1
 611.375 282.5 l 1,140,-1
 611.344 281.344 l 1,141,-1
 611.313 280.844 l 2,142,143
 606.501 187.068 606.501 187.068 561.563 127.219 c 0,144,145
 529.612 84.665 529.612 84.665 485.381 60.335 c 128,-1,146
 441.15 36.0049 441.15 36.0049 368.626 34.0625 c 1,147,-1
 368.626 54.0625 l 1,148,149
 436.898 55.9648 436.898 55.9648 476.68 78.2119 c 128,-1,150
 516.461 100.459 516.461 100.459 545.563 139.219 c 0,151,152
 586.762 194.088 586.762 194.088 591.313 281.406 c 1,153,-1
 591.313 282.344 l 1,154,-1
 591.376 282.844 l 1,155,-1
 591.376 649.281 l 1,138,-1
EndSplineSet
Validated: 33
Position2: "'cpsp' Capital Spacing in Latin lookup 0 subtable" dx=7 dy=0 dh=14 dv=0
EndChar

StartChar: V
Encoding: 86 86 20
Width: 751
Flags: W
LayerCount: 2
Fore
SplineSet
6 695.188 m 1,0,-1
 27.3594 695.188 l 1,1,-1
 301.188 16.1875 l 1,2,-1
 402.084 16.1875 l 1,3,-1
 656.941 650.188 l 1,4,-1
 678.375 650.188 l 1,5,-1
 424.25 16.1875 l 1,6,-1
 450.438 16.1875 l 1,7,-1
 715.375 675.188 l 1,8,-1
 639.829 675.188 l 1,9,-1
 384.928 41.1875 l 1,10,-1
 366.685 41.1875 l 1,11,-1
 121.153 650.429 l 1,12,-1
 142.75 650.188 l 1,13,-1
 375.844 71.7812 l 1,14,-1
 626.535 695.188 l 1,15,-1
 744.969 695.188 l 1,16,-1
 463.969 -3.8125 l 1,17,-1
 287.688 -3.8125 l 1,18,-1
 6 695.188 l 1,0,-1
54.7041 695.188 m 1,19,-1
 173.125 695.188 l 1,20,-1
 375.781 192.312 l 1,21,-1
 577.906 695.188 l 1,22,-1
 599.402 695.188 l 1,23,-1
 375.812 138.75 l 1,24,-1
 159.625 675.188 l 1,25,-1
 84.0928 675.188 l 1,26,-1
 339.677 41.1875 l 1,27,-1
 318.094 41.1875 l 1,28,-1
 54.7041 695.188 l 1,19,-1
EndSplineSet
Validated: 1
Position2: "'cpsp' Capital Spacing in Latin lookup 0 subtable" dx=7 dy=0 dh=14 dv=0
EndChar

StartChar: W
Encoding: 87 87 21
Width: 1106
Flags: W
LayerCount: 2
Fore
SplineSet
14.9668 695.188 m 1,0,-1
 35.8867 695.188 l 1,1,-1
 262.998 16.1875 l 1,2,-1
 394.904 16.1875 l 1,3,-1
 534.686 439.094 l 1,4,-1
 553.811 496.938 l 1,5,-1
 572.717 439 l 1,6,-1
 710.498 16.1875 l 1,7,-1
 736.874 16.1875 l 1,8,-1
 596.467 446.75 l 1,9,-1
 553.998 577.125 l 1,10,-1
 510.967 446.938 l 1,11,-1
 376.873 41.1875 l 1,12,-1
 328.553 41.1875 l 1,13,-1
 266.967 225.125 l 1,14,-1
 125.04 650.188 l 1,15,-1
 146.029 650.188 l 1,16,-1
 285.936 231.469 l 1,17,-1
 342.471 61.1875 l 1,18,-1
 362.404 61.1875 l 1,19,-1
 491.967 453.219 l 1,20,-1
 542.305 605 l 1,21,-1
 565.816 605 l 1,22,-1
 615.498 452.938 l 1,23,-1
 757.58 16.1875 l 1,24,-1
 844.717 16.1875 l 1,25,-1
 1063.37 675.188 l 1,26,-1
 989.228 675.188 l 1,27,-1
 839.842 223.812 l 1,28,-1
 801.653 109.358 l 1,29,-1
 791.659 141.35 l 1,30,-1
 820.873 230.125 l 1,31,-1
 975.415 695.188 l 1,32,-1
 1091.06 695.188 l 1,33,-1
 859.154 -3.8125 l 1,34,-1
 695.967 -3.8125 l 1,35,-1
 553.686 432.812 l 1,36,-1
 409.373 -3.8125 l 1,37,-1
 248.592 -3.8125 l 1,38,-1
 14.9668 695.188 l 1,0,-1
62.4834 695.188 m 1,39,-1
 178.436 695.188 l 1,40,-1
 328.623 245.719 l 1,41,-1
 477.186 695.188 l 1,42,-1
 631.217 695.188 l 1,43,-1
 778.154 244.281 l 1,44,-1
 927.748 695.188 l 1,45,-1
 948.679 695.188 l 1,46,-1
 777.998 180.25 l 1,47,-1
 759.154 238.094 l 1,48,-1
 616.717 675.188 l 1,49,-1
 491.654 675.188 l 1,50,-1
 347.623 239.438 l 1,51,-1
 340.217 217.031 l 1,52,-1
 353.279 176.938 l 1,53,-1
 371.342 231.594 l 1,54,-1
 509.686 650.188 l 1,55,-1
 598.561 650.188 l 1,56,-1
 790.29 61.1875 l 1,57,-1
 812.217 61.1875 l 1,58,-1
 1008.21 650.188 l 1,59,-1
 1028.72 650.188 l 1,60,-1
 826.654 41.1875 l 1,61,-1
 776.328 41.1875 l 1,62,-1
 584.029 630.188 l 1,63,-1
 524.154 630.188 l 1,64,-1
 390.342 225.312 l 1,65,-1
 352.409 110.546 l 1,66,-1
 309.654 239.375 l 1,67,-1
 164.029 675.188 l 1,68,-1
 90.0283 675.188 l 1,69,-1
 301.987 41.1875 l 1,70,-1
 280.998 41.1875 l 1,71,-1
 62.4834 695.188 l 1,39,-1
EndSplineSet
Validated: 1
Position2: "'cpsp' Capital Spacing in Latin lookup 0 subtable" dx=7 dy=0 dh=14 dv=0
EndChar

StartChar: X
Encoding: 88 88 22
Width: 693
Flags: W
LayerCount: 2
Fore
SplineSet
19.4062 695.188 m 1,0,-1
 43.3955 695.188 l 1,1,2
 54.6367 678.029 54.6367 678.029 97.2148 612.746 c 128,-1,3
 139.792 547.464 139.792 547.464 158.435 519.344 c 128,-1,4
 177.077 491.225 177.077 491.225 210.93 440.751 c 128,-1,5
 244.783 390.277 244.783 390.277 271.978 352.038 c 128,-1,6
 299.173 313.8 299.173 313.8 325.451 278.977 c 1,7,-1
 309 253.969 l 1,8,-1
 172.031 45 l 1,9,-1
 148.456 45 l 1,10,-1
 300.084 277.344 l 1,11,12
 290.724 288.666 290.724 288.666 282.348 299.693 c 128,-1,13
 273.972 310.722 273.972 310.722 266.47 321.043 c 128,-1,14
 258.968 331.364 258.968 331.364 255.281 336.156 c 1,15,-1
 34.5771 0 l 1,16,-1
 11 0 l 1,17,-1
 243.062 354 l 1,18,-1
 19.4062 695.188 l 1,0,-1
73.2998 695.188 m 1,19,-1
 204.719 695.188 l 1,20,-1
 346.625 478.719 l 1,21,-1
 488.531 695.188 l 1,22,-1
 512.61 695.188 l 1,23,-1
 363.344 467.75 l 1,24,-1
 346.625 442.25 l 1,25,-1
 329.906 467.75 l 1,26,-1
 193.906 675.188 l 1,27,-1
 110.215 675.188 l 1,28,29
 185.924 556.065 185.924 556.065 333.557 348.917 c 128,-1,30
 481.188 141.769 481.188 141.769 544.822 45 c 1,31,-1
 521.219 45 l 1,32,33
 459.298 136.081 459.298 136.081 305.296 354.387 c 128,-1,34
 151.294 572.692 151.294 572.692 73.2998 695.188 c 1,19,-1
543.321 696.142 m 1,35,-1
 673.875 695.188 l 1,36,-1
 450.219 354 l 1,37,-1
 682.281 0 l 1,38,-1
 658.733 0 l 1,39,-1
 433.5 343.031 l 1,40,-1
 426.312 354 l 1,41,-1
 433.5 364.969 l 1,42,-1
 636.844 675.188 l 1,43,-1
 552.807 675.188 l 1,44,-1
 400.969 443.094 l 1,45,-1
 363.344 385.656 l 1,46,-1
 350.018 364.923 l 1,47,48
 327.145 393.562 327.145 393.562 292.281 443.094 c 1,49,-1
 156.612 650.188 l 1,50,-1
 180.438 650.188 l 1,51,-1
 309 454.062 l 1,52,-1
 347.579 398.533 l 1,53,-1
 384.25 454.062 l 1,54,-1
 543.321 696.142 l 1,35,-1
566.767 650.188 m 1,55,-1
 590.594 650.188 l 1,56,-1
 412.594 378.656 l 1,57,-1
 394.382 351.301 l 1,58,59
 422.462 311.177 422.462 311.177 501.9 186.97 c 128,-1,60
 581.339 62.7627 581.339 62.7627 628.298 0 c 1,61,-1
 496.938 0 l 1,62,-1
 346.625 229.312 l 1,63,-1
 196.312 0 l 1,64,-1
 64.8877 0 l 1,65,-1
 258.862 295.945 l 1,66,-1
 271.392 278.646 l 1,67,-1
 101.695 20 l 1,68,-1
 185.5 20 l 1,69,-1
 329.906 240.281 l 1,70,-1
 343.589 261.396 l 1,71,72
 384.073 213.097 384.073 213.097 434 132.224 c 128,-1,73
 483.927 51.3506 483.927 51.3506 507.75 20 c 1,74,-1
 591.677 20 l 1,75,-1
 369.433 349.277 l 1,76,-1
 379.688 364.969 l 1,77,-1
 395.875 389.625 l 1,78,-1
 566.767 650.188 l 1,55,-1
EndSplineSet
Validated: 1
Position2: "'cpsp' Capital Spacing in Latin lookup 0 subtable" dx=7 dy=0 dh=14 dv=0
EndChar

StartChar: Y
Encoding: 89 89 23
Width: 714
Flags: W
LayerCount: 2
Fore
SplineSet
-2 694.594 m 1,0,-1
 179.469 694.594 l 1,1,-1
 356.188 404.281 l 1,2,-1
 533.938 694.594 l 1,3,-1
 662.72 694.594 l 1,4,-1
 396.281 259.062 l 1,5,-1
 389.656 248.25 l 1,6,-1
 389.656 235.562 l 1,7,-1
 389.656 45 l 1,8,-1
 369.656 45 l 1,9,-1
 369.656 235.562 l 1,10,-1
 369.656 248.25 l 1,11,-1
 369.656 253.875 l 1,12,-1
 372.594 258.688 l 1,13,-1
 379.219 269.5 l 1,14,-1
 627.276 674.594 l 1,15,-1
 545.156 674.594 l 1,16,-1
 373.25 393.844 l 1,17,-1
 368.281 385.75 l 1,18,-1
 383.406 362.562 l 1,19,-1
 394.562 380.781 l 1,20,-1
 559.156 649.594 l 1,21,-1
 582.745 649.594 l 1,22,-1
 382.58 323.143 l 1,23,-1
 168.219 674.594 l 1,24,-1
 33.5938 674.594 l 1,25,-1
 296.75 242.344 l 1,26,-1
 299.656 237.531 l 1,27,-1
 299.656 231.938 l 1,28,-1
 299.656 0 l 1,29,-1
 279.656 0 l 1,30,-1
 279.656 231.938 l 1,31,-1
 -2 694.594 l 1,0,-1
692.465 694.594 m 1,32,-1
 715.688 694.594 l 1,33,-1
 434.656 235.562 l 1,34,-1
 434.656 0 l 1,35,-1
 324.656 0 l 1,36,-1
 324.656 231.938 l 1,37,-1
 324.656 244.562 l 1,38,-1
 318.094 255.344 l 1,39,-1
 78.0938 649.594 l 1,40,-1
 154.188 649.594 l 1,41,-1
 367.545 298.845 l 1,42,-1
 356 279.531 l 1,43,-1
 338.969 307.5 l 1,44,-1
 300.656 370.469 l 1,45,-1
 142.938 629.594 l 1,46,-1
 113.688 629.594 l 1,47,-1
 335.188 265.75 l 1,48,-1
 341.75 254.969 l 1,49,-1
 344.656 250.156 l 1,50,-1
 344.656 244.562 l 1,51,-1
 344.656 231.938 l 1,52,-1
 344.656 20 l 1,53,-1
 414.656 20 l 1,54,-1
 414.656 235.562 l 1,55,-1
 414.656 241.188 l 1,56,-1
 417.594 246 l 1,57,-1
 692.465 694.594 l 1,32,-1
EndSplineSet
Validated: 1
Position2: "'cpsp' Capital Spacing in Latin lookup 0 subtable" dx=7 dy=0 dh=14 dv=0
EndChar

StartChar: Z
Encoding: 90 90 24
Width: 694
Flags: W
LayerCount: 2
Fore
SplineSet
54.1562 693.312 m 1,0,-1
 586.529 693.312 l 1,1,-1
 654.248 693.312 l 1,2,-1
 654.248 575.344 l 1,3,-1
 644.436 564.312 l 1,4,-1
 282.154 156.938 l 1,5,-1
 654.654 156.938 l 1,6,-1
 654.654 136.938 l 1,7,-1
 282.154 136.938 l 1,8,-1
 237.592 136.938 l 1,9,-1
 267.217 170.219 l 1,10,-1
 634.248 583.312 l 1,11,-1
 542.436 583.312 l 1,12,-1
 529.061 570.031 l 1,13,-1
 462.436 495.125 l 1,14,-1
 105.029 93.2188 l 1,15,-1
 105.029 66.9375 l 1,16,-1
 115.57 66.9375 l 1,17,-1
 233.592 200.125 l 1,18,-1
 553.979 560.281 l 1,19,-1
 580.729 560.281 l 1,20,-1
 248.529 186.844 l 1,21,-1
 141.347 66.9375 l 1,22,-1
 609.654 66.9375 l 1,23,-1
 609.654 46.9375 l 1,24,-1
 109.499 46.9375 l 1,25,-1
 85.0303 46.9375 l 1,26,-1
 85.0303 100.812 l 1,27,-1
 447.499 508.406 l 1,28,-1
 514.124 583.312 l 1,29,-1
 413.874 583.312 l 1,30,-1
 99.1553 583.312 l 1,31,-1
 99.1553 603.312 l 1,32,-1
 634.25 603.312 l 1,33,-1
 634.25 673.312 l 1,34,-1
 586.531 673.312 l 1,35,-1
 54.1562 673.312 l 1,36,-1
 54.1562 693.312 l 1,0,-1
54.1562 538.312 m 1,37,-1
 54.1562 648.312 l 1,38,-1
 586.531 648.312 l 1,39,-1
 609.25 648.312 l 1,40,-1
 609.25 628.312 l 1,41,-1
 74.1562 628.312 l 1,42,-1
 74.1562 558.312 l 1,43,-1
 413.875 558.312 l 1,44,-1
 458.438 558.312 l 1,45,-1
 428.812 525.031 l 1,46,-1
 66.5312 117.656 l 1,47,-1
 60.0312 110.344 l 1,48,-1
 60.0312 21.9375 l 1,49,-1
 109.5 21.9375 l 1,50,-1
 634.656 21.9375 l 1,51,-1
 634.656 91.9375 l 1,52,-1
 282.156 91.9375 l 1,53,-1
 197.354 91.9375 l 1,54,-1
 215.197 111.938 l 1,55,-1
 282.156 111.938 l 1,56,-1
 654.656 111.938 l 1,57,-1
 654.656 1.9375 l 1,58,-1
 109.5 1.9375 l 1,59,-1
 40.0312 1.9375 l 1,60,-1
 40.0312 117.938 l 1,61,-1
 51.5938 130.938 l 1,62,-1
 413.875 538.312 l 1,63,-1
 54.1562 538.312 l 1,37,-1
EndSplineSet
Validated: 1
Position2: "'cpsp' Capital Spacing in Latin lookup 0 subtable" dx=7 dy=0 dh=14 dv=0
EndChar

StartChar: bar
Encoding: 124 124 25
Width: 150
Flags: HW
LayerCount: 2
Fore
SplineSet
50 1000 m 5,0,-1
 100 1000 l 5,1,-1
 100 0 l 5,2,-1
 50 0 l 5,3,-1
 50 1000 l 5,0,-1
EndSplineSet
Validated: 1
EndChar
